<svg id="visual" viewBox="0 0 960 540" width="960" height="540" xmlns="http://www.w3.org/2000/svg" xmlns:xlink="http://www.w3.org/1999/xlink" version="1.1"><rect x="0" y="0" width="960" height="540" fill="#D2EAFF"></rect><path d="M0 181L26.7 171.3C53.3 161.7 106.7 142.3 160 130.8C213.3 119.3 266.7 115.7 320 120.3C373.3 125 426.7 138 480 142.3C533.3 146.7 586.7 142.3 640 144.3C693.3 146.3 746.7 154.7 800 158.5C853.3 162.3 906.7 161.7 933.3 161.3L960 161L960 0L933.3 0C906.7 0 853.3 0 800 0C746.7 0 693.3 0 640 0C586.7 0 533.3 0 480 0C426.7 0 373.3 0 320 0C266.7 0 213.3 0 160 0C106.7 0 53.3 0 26.7 0L0 0Z" fill="#0066ff"></path><path d="M0 79L26.7 86.2C53.3 93.3 106.7 107.7 160 122C213.3 136.3 266.7 150.7 320 153.2C373.3 155.7 426.7 146.3 480 141.7C533.3 137 586.7 137 640 130.3C693.3 123.7 746.7 110.3 800 103.3C853.3 96.3 906.7 95.7 933.3 95.3L960 95L960 0L933.3 0C906.7 0 853.3 0 800 0C746.7 0 693.3 0 640 0C586.7 0 533.3 0 480 0C426.7 0 373.3 0 320 0C266.7 0 213.3 0 160 0C106.7 0 53.3 0 26.7 0L0 0Z" fill="#008cff"></path><path d="M0 68L26.7 62.3C53.3 56.7 106.7 45.3 160 40C213.3 34.7 266.7 35.3 320 34.2C373.3 33 426.7 30 480 39.2C533.3 48.3 586.7 69.7 640 76.5C693.3 83.3 746.7 75.7 800 72.2C853.3 68.7 906.7 69.3 933.3 69.7L960 70L960 0L933.3 0C906.7 0 853.3 0 800 0C746.7 0 693.3 0 640 0C586.7 0 533.3 0 480 0C426.7 0 373.3 0 320 0C266.7 0 213.3 0 160 0C106.7 0 53.3 0 26.7 0L0 0Z" fill="#4facf7"></path></svg>