<svg id="visual" viewBox="0 0 960 540" width="960" height="540" xmlns="http://www.w3.org/2000/svg" xmlns:xlink="http://www.w3.org/1999/xlink" version="1.1"><rect x="0" y="0" width="960" height="540" fill="#001220"></rect><defs><linearGradient id="grad1_0" x1="43.8%" y1="0%" x2="100%" y2="100%"><stop offset="14.444444444444446%" stop-color="#001220" stop-opacity="1"></stop><stop offset="85.55555555555554%" stop-color="#001220" stop-opacity="1"></stop></linearGradient></defs><defs><linearGradient id="grad2_0" x1="0%" y1="0%" x2="56.3%" y2="100%"><stop offset="14.444444444444446%" stop-color="#001220" stop-opacity="1"></stop><stop offset="85.55555555555554%" stop-color="#001220" stop-opacity="1"></stop></linearGradient></defs><g transform="translate(960, 0)"><path d="M0 486C-54.6 450.2 -109.2 414.4 -160.3 387.1C-211.5 359.8 -259.2 341.2 -311.1 311.1C-363 281.1 -419.2 239.7 -449 186C-478.9 132.2 -482.4 66.1 -486 0L0 0Z" fill="#0066FF"></path></g><g transform="translate(0, 540)"><path d="M0 -486C46.7 -440.1 93.5 -394.2 156.5 -377.9C219.5 -361.5 298.9 -374.7 343.7 -343.7C388.4 -312.6 398.7 -237.2 416.7 -172.6C434.6 -107.9 460.3 -54 486 0L0 0Z" fill="#0066FF"></path></g></svg>