<svg id="visual" viewBox="0 0 900 600" width="900" height="600" xmlns="http://www.w3.org/2000/svg" xmlns:xlink="http://www.w3.org/1999/xlink" version="1.1"><g transform="translate(466.5576652562749 249.69365248075275)"><path d="M118.6 -150.6C154.9 -136.9 186.3 -103.8 191.3 -67.2C196.2 -30.6 174.7 9.6 165.7 59C156.7 108.4 160.4 167.1 134.8 208.8C109.3 250.5 54.7 275.2 12.6 257.8C-29.4 240.5 -58.8 180.9 -104.3 145.7C-149.8 110.5 -211.4 99.6 -223 70.8C-234.6 42 -196.2 -4.6 -172.2 -48.9C-148.2 -93.3 -138.4 -135.2 -112.1 -152.2C-85.8 -169.1 -42.9 -161.1 -0.9 -159.8C41.1 -158.6 82.3 -164.3 118.6 -150.6" fill="#0066FF"></path></g></svg>