<svg id="visual" viewBox="0 0 600 600" width="600" height="600" xmlns="http://www.w3.org/2000/svg" xmlns:xlink="http://www.w3.org/1999/xlink" version="1.1"><g transform="translate(325.993099689052 349.7578420399226)"><path d="M132 -175.9C175.4 -121 217.7 -83.4 222.6 -41.4C227.5 0.7 194.9 47.2 165.1 92C135.3 136.7 108.2 179.7 66.8 203.4C25.4 227.1 -30.2 231.5 -92.7 222.6C-155.1 213.7 -224.3 191.6 -254.5 144.5C-284.7 97.3 -275.8 25.1 -264.6 -48.1C-253.3 -121.3 -239.8 -195.5 -195.3 -250.1C-150.8 -304.8 -75.4 -339.9 -15.5 -321.4C44.4 -302.9 88.7 -230.7 132 -175.9" fill="none" stroke="#0066FF" stroke-width="6"></path></g></svg>