<svg width="305" height="305" viewBox="0 0 305 305" fill="none" xmlns="http://www.w3.org/2000/svg">
<path d="M248.408 106.911C245.866 104.597 241.929 104.784 239.615 107.326L239.518 107.434C237.205 109.978 237.391 113.914 239.934 116.227C241.126 117.312 242.625 117.847 244.12 117.847C245.812 117.847 247.499 117.161 248.727 115.811L248.824 115.703C251.137 113.16 250.951 109.224 248.408 106.911Z" fill="url(#paint0_linear_158_4)"/>
<path d="M234.773 121.927C232.228 119.617 228.29 119.808 225.981 122.354L185.353 167.128C183.042 169.673 183.234 173.61 185.78 175.92C186.972 177.001 188.469 177.534 189.961 177.534C191.655 177.534 193.344 176.845 194.572 175.493L235.201 130.719C237.51 128.174 237.319 124.237 234.773 121.927Z" fill="url(#paint1_linear_158_4)"/>
<path d="M299.879 0.573551C298.343 -0.137118 296.634 -0.171669 295.122 0.382927C295.122 0.381736 295.122 0.38114 295.121 0.379949L5.58587 106.693C3.27694 107.541 1.68404 109.669 1.52141 112.124C1.35759 114.578 2.65562 116.899 4.83231 118.044L86.9596 161.283V262.08C86.9596 264.867 88.8128 267.314 91.4941 268.071C92.054 268.229 92.6229 268.305 93.1841 268.305C94.3707 268.305 95.521 267.954 96.5117 267.325C96.5141 267.329 96.5164 267.331 96.52 267.336L164.013 224.505L248.537 303.327C249.708 304.419 251.231 304.999 252.782 304.999C253.467 304.999 254.158 304.886 254.826 304.654C257.006 303.895 258.588 301.993 258.935 299.71L303.421 7.15901C303.837 4.41998 302.394 1.73636 299.879 0.573551ZM92.6206 150.195L23.0226 113.553L258.839 26.9642L92.6206 150.195ZM99.408 160.659L255.145 45.201L132.218 186.642C131.988 186.906 131.79 187.187 131.613 187.476C131.611 187.474 131.61 187.474 131.609 187.472L99.408 240.011V160.659ZM112.525 242.433L138.242 200.472L154.603 215.73L112.525 242.433ZM248.4 286.178L145.556 190.271L287.887 26.505L248.4 286.178Z" fill="url(#paint2_linear_158_4)"/>
<defs>
<linearGradient id="paint0_linear_158_4" x1="244.171" y1="105.291" x2="244.171" y2="117.847" gradientUnits="userSpaceOnUse">
<stop stop-color="#0057FF"/>
<stop offset="1" stop-color="#0048D2" stop-opacity="0"/>
</linearGradient>
<linearGradient id="paint1_linear_158_4" x1="210.276" y1="120.312" x2="210.276" y2="177.534" gradientUnits="userSpaceOnUse">
<stop stop-color="#0057FF"/>
<stop offset="1" stop-color="#0048D2" stop-opacity="0"/>
</linearGradient>
<linearGradient id="paint2_linear_158_4" x1="152.5" y1="0" x2="152.5" y2="304.999" gradientUnits="userSpaceOnUse">
<stop stop-color="#0057FF"/>
<stop offset="1" stop-color="#0048D2" stop-opacity="0"/>
</linearGradient>
</defs>
</svg>
