<svg width="320" height="240" viewBox="0 0 320 240" fill="none" xmlns="http://www.w3.org/2000/svg">
<rect width="320" height="240" fill="#001630"/>
<path d="M62.8555 117.188C63.3398 117.188 63.6758 117.141 63.8633 117.047L63.9102 117.059L63.793 120H55.0156V104.332C55.2266 104.348 55.4609 104.359 55.7188 104.367L56.5391 104.391C57.0859 104.406 57.6797 104.414 58.3203 104.414C60.1094 104.414 61.8789 104.383 63.6289 104.32C63.543 105.008 63.5 105.926 63.5 107.074C63.5 107.199 63.5078 107.293 63.5234 107.355L63.5 107.391C63.0938 107.273 62.5156 107.215 61.7656 107.215H58.0742V110.203H60.8516C61.7109 110.203 62.2266 110.18 62.3984 110.133L62.4336 113.027C62.0586 112.988 61.5742 112.969 60.9805 112.969H58.0742V117.188H62.8555ZM68.9502 116.613C68.9502 118.371 68.9814 119.5 69.0439 120H65.9853V107.754H68.9502V108.809C70.0205 107.949 71.1181 107.52 72.2431 107.52C73.5712 107.52 74.5361 108.094 75.1377 109.242C75.7392 108.625 76.2392 108.219 76.6377 108.023C77.3017 107.688 77.9658 107.52 78.6298 107.52C79.3017 107.52 79.872 107.633 80.3408 107.859C80.8095 108.086 81.1962 108.406 81.5009 108.82C82.1181 109.656 82.4267 110.805 82.4267 112.266V116.93C82.4267 118.25 82.4462 119.043 82.4853 119.309C82.5244 119.574 82.5752 119.746 82.6377 119.824C82.708 119.902 82.7666 119.973 82.8134 120.035L82.79 120.082C82.165 120.027 81.7041 120 81.4072 120H80.5283C80.2392 120 79.8837 120.012 79.4619 120.035V113.695C79.4619 111.867 79.1806 110.781 78.6181 110.438C78.4306 110.328 78.208 110.273 77.9502 110.273C77.7002 110.273 77.4775 110.305 77.2822 110.367C77.0869 110.422 76.9033 110.516 76.7314 110.648C76.4423 110.859 76.1142 111.273 75.747 111.891C75.7548 111.953 75.7587 112.016 75.7587 112.078C75.7587 112.141 75.7587 113.172 75.7587 115.172C75.7587 117.172 75.8056 118.781 75.8994 120C75.2353 120 74.6689 120 74.2002 120C73.7392 120 73.2978 120.012 72.8759 120.035V113.684C72.8759 112.41 72.7978 111.582 72.6416 111.199C72.4931 110.816 72.333 110.566 72.1611 110.449C71.9892 110.332 71.7783 110.273 71.5283 110.273C70.497 110.273 69.6377 110.77 68.9502 111.762V116.613ZM100.276 119.344C99.2841 119.898 98.2919 120.176 97.2997 120.176C96.3075 120.176 95.4403 120.02 94.6981 119.707C93.9559 119.395 93.3231 118.965 92.7997 118.418C91.7216 117.293 91.1825 115.832 91.1825 114.035C91.1825 112.176 91.8075 110.629 93.0575 109.395C94.3153 108.145 95.9247 107.52 97.8856 107.52C98.4872 107.52 99.077 107.598 99.6552 107.754V102.539H102.526V115.066C102.526 116.105 102.573 116.785 102.667 117.105C102.768 117.426 102.878 117.66 102.995 117.809C103.12 117.957 103.276 118.098 103.464 118.23L101.261 120.176C100.854 119.957 100.526 119.68 100.276 119.344ZM97.8505 117.48C98.5067 117.48 99.1083 117.355 99.6552 117.105V110.613C99.1083 110.387 98.5145 110.273 97.8739 110.273C97.2333 110.273 96.6825 110.359 96.2216 110.531C95.7684 110.703 95.3778 110.941 95.0497 111.246C94.3622 111.887 94.0184 112.719 94.0184 113.742C94.0184 114.859 94.3309 115.75 94.9559 116.414C95.6278 117.125 96.5927 117.48 97.8505 117.48ZM104.367 113.977C104.367 113.062 104.523 112.215 104.836 111.434C105.148 110.652 105.59 109.969 106.16 109.383C107.379 108.141 108.972 107.52 110.941 107.52C112.605 107.52 113.941 108.07 114.949 109.172C115.941 110.234 116.437 111.57 116.437 113.18C116.437 113.797 116.39 114.219 116.297 114.445C115.515 114.664 113.926 114.773 111.527 114.773H107.402C107.605 115.609 108.078 116.262 108.82 116.73C109.562 117.191 110.527 117.422 111.715 117.422C112.957 117.422 114.023 117.199 114.914 116.754C115.148 116.637 115.324 116.527 115.441 116.426C115.426 116.754 115.406 117.09 115.383 117.434L115.254 119.262C114.66 119.668 113.699 119.949 112.371 120.105C111.98 120.152 111.605 120.176 111.246 120.176C109.262 120.176 107.621 119.598 106.324 118.441C105.019 117.277 104.367 115.789 104.367 113.977ZM113.32 112.5C113 110.82 112.086 109.98 110.578 109.98C109.39 109.98 108.488 110.492 107.871 111.516C107.683 111.828 107.539 112.172 107.437 112.547C107.625 112.555 107.855 112.562 108.129 112.57H108.996C109.285 112.578 109.562 112.582 109.828 112.582H110.496C110.894 112.582 111.285 112.578 111.668 112.57L112.629 112.535C112.887 112.527 113.117 112.516 113.32 112.5ZM122.157 120.176C119.954 120.176 118.294 119.773 117.177 118.969C117.192 118.734 117.216 118.469 117.247 118.172L117.352 117.328C117.415 116.773 117.454 116.43 117.47 116.297C117.485 116.156 117.497 116.082 117.505 116.074C117.513 116.059 117.575 116.121 117.692 116.262C117.809 116.395 118.032 116.559 118.36 116.754C118.688 116.949 119.067 117.121 119.497 117.27C120.427 117.59 121.395 117.75 122.403 117.75C123.755 117.75 124.43 117.301 124.43 116.402C124.43 116.113 124.302 115.898 124.044 115.758C123.583 115.523 122.903 115.348 122.005 115.23C121.114 115.105 120.384 114.926 119.813 114.691C119.243 114.457 118.778 114.176 118.419 113.848C117.755 113.23 117.423 112.422 117.423 111.422C117.423 110.203 117.891 109.246 118.829 108.551C119.759 107.863 121.044 107.52 122.684 107.52C124.309 107.52 125.696 107.98 126.845 108.902C126.79 109.105 126.731 109.301 126.669 109.488C126.489 110.004 126.356 110.375 126.27 110.602L126.001 111.293C125.985 111.355 125.973 111.387 125.966 111.387C125.95 111.387 125.888 111.305 125.778 111.141C125.286 110.57 124.52 110.195 123.481 110.016C123.161 109.953 122.833 109.922 122.497 109.922C121.075 109.922 120.364 110.352 120.364 111.211C120.364 111.508 120.513 111.734 120.809 111.891C121.364 112.188 122.122 112.406 123.083 112.547C124.052 112.688 124.786 112.879 125.286 113.121C125.786 113.355 126.188 113.641 126.493 113.977C127.055 114.586 127.337 115.395 127.337 116.402C127.337 117.504 126.895 118.398 126.013 119.086C125.091 119.812 123.805 120.176 122.157 120.176ZM128.51 113.977C128.51 113.062 128.666 112.215 128.978 111.434C129.291 110.652 129.732 109.969 130.302 109.383C131.521 108.141 133.115 107.52 135.084 107.52C136.748 107.52 138.084 108.07 139.092 109.172C140.084 110.234 140.58 111.57 140.58 113.18C140.58 113.797 140.533 114.219 140.439 114.445C139.658 114.664 138.068 114.773 135.67 114.773H131.545C131.748 115.609 132.22 116.262 132.963 116.73C133.705 117.191 134.67 117.422 135.857 117.422C137.099 117.422 138.166 117.199 139.056 116.754C139.291 116.637 139.467 116.527 139.584 116.426C139.568 116.754 139.549 117.09 139.525 117.434L139.396 119.262C138.802 119.668 137.842 119.949 136.513 120.105C136.123 120.152 135.748 120.176 135.388 120.176C133.404 120.176 131.763 119.598 130.467 118.441C129.162 117.277 128.51 115.789 128.51 113.977ZM137.463 112.5C137.142 110.82 136.228 109.98 134.72 109.98C133.533 109.98 132.631 110.492 132.013 111.516C131.826 111.828 131.681 112.172 131.58 112.547C131.767 112.555 131.998 112.562 132.271 112.57H133.138C133.427 112.578 133.705 112.582 133.97 112.582H134.638C135.037 112.582 135.427 112.578 135.81 112.57L136.771 112.535C137.029 112.527 137.26 112.516 137.463 112.5ZM145.257 118.5C145.257 119.188 145.288 119.688 145.35 120H142.409V107.754H145.257V108.797C146.288 107.945 147.389 107.52 148.561 107.52C149.842 107.52 150.866 107.957 151.632 108.832C152.397 109.699 152.78 110.844 152.78 112.266V116.93C152.78 118.25 152.8 119.043 152.839 119.309C152.878 119.574 152.928 119.746 152.991 119.824C153.061 119.902 153.12 119.973 153.167 120.035L153.143 120.082C152.51 120.027 152.05 120 151.76 120H150.94C150.69 120 150.354 120.012 149.932 120.035V113.648C149.932 111.359 149.237 110.215 147.846 110.215C146.815 110.215 145.952 110.746 145.257 111.809V118.5ZM153.484 107.754H156.8L159.66 115.816L162.425 107.754H165.672L160.832 120H158.418L153.484 107.754ZM165.497 113.941C165.497 113.082 165.641 112.262 165.93 111.48C166.227 110.691 166.649 110.004 167.196 109.418C168.391 108.152 169.942 107.52 171.848 107.52C173.747 107.52 175.255 108.117 176.372 109.312C177.442 110.453 177.977 111.934 177.977 113.754C177.977 115.574 177.426 117.082 176.325 118.277C175.161 119.543 173.618 120.176 171.696 120.176C169.712 120.176 168.157 119.555 167.032 118.312C166.008 117.18 165.497 115.723 165.497 113.941ZM168.344 113.871C168.344 114.363 168.426 114.84 168.59 115.301C168.755 115.762 168.989 116.156 169.294 116.484C169.942 117.195 170.794 117.551 171.848 117.551C172.825 117.551 173.594 117.203 174.157 116.508C174.704 115.836 174.977 114.961 174.977 113.883C174.977 112.789 174.696 111.906 174.133 111.234C173.532 110.516 172.708 110.156 171.661 110.156C170.598 110.156 169.766 110.539 169.165 111.305C168.618 112.008 168.344 112.863 168.344 113.871ZM182.185 118.688C182.185 119.359 182.201 119.797 182.232 120H179.255V102.539H182.185V118.688ZM182.76 107.754H186.077L188.936 115.816L191.702 107.754H194.948L190.108 120H187.694L182.76 107.754ZM195.289 104.262C195.914 103.285 196.566 102.426 197.246 101.684L199.765 103.664C199.429 104.078 199.117 104.484 198.828 104.883C198.828 104.883 198.527 105.309 197.925 106.16L195.289 104.262ZM198.371 118.688C198.371 119.359 198.386 119.797 198.417 120H195.441V107.754H198.371V118.688ZM203.891 116.613C203.891 118.371 203.922 119.5 203.985 120H200.926V107.754H203.891V108.809C204.961 107.949 206.059 107.52 207.184 107.52C208.512 107.52 209.477 108.094 210.079 109.242C210.68 108.625 211.18 108.219 211.579 108.023C212.243 107.688 212.907 107.52 213.571 107.52C214.243 107.52 214.813 107.633 215.282 107.859C215.75 108.086 216.137 108.406 216.442 108.82C217.059 109.656 217.368 110.805 217.368 112.266V116.93C217.368 118.25 217.387 119.043 217.426 119.309C217.465 119.574 217.516 119.746 217.579 119.824C217.649 119.902 217.708 119.973 217.754 120.035L217.731 120.082C217.106 120.027 216.645 120 216.348 120H215.469C215.18 120 214.825 120.012 214.403 120.035V113.695C214.403 111.867 214.122 110.781 213.559 110.438C213.372 110.328 213.149 110.273 212.891 110.273C212.641 110.273 212.418 110.305 212.223 110.367C212.028 110.422 211.844 110.516 211.672 110.648C211.383 110.859 211.055 111.273 210.688 111.891C210.696 111.953 210.7 112.016 210.7 112.078C210.7 112.141 210.7 113.172 210.7 115.172C210.7 117.172 210.747 118.781 210.84 120C210.176 120 209.61 120 209.141 120C208.68 120 208.239 120.012 207.817 120.035V113.684C207.817 112.41 207.739 111.582 207.583 111.199C207.434 110.816 207.274 110.566 207.102 110.449C206.93 110.332 206.719 110.273 206.469 110.273C205.438 110.273 204.579 110.77 203.891 111.762V116.613ZM219.22 113.977C219.22 113.062 219.376 112.215 219.689 111.434C220.001 110.652 220.443 109.969 221.013 109.383C222.232 108.141 223.826 107.52 225.794 107.52C227.458 107.52 228.794 108.07 229.802 109.172C230.794 110.234 231.29 111.57 231.29 113.18C231.29 113.797 231.244 114.219 231.15 114.445C230.369 114.664 228.779 114.773 226.38 114.773H222.255C222.458 115.609 222.931 116.262 223.673 116.73C224.415 117.191 225.38 117.422 226.568 117.422C227.81 117.422 228.876 117.199 229.767 116.754C230.001 116.637 230.177 116.527 230.294 116.426C230.279 116.754 230.259 117.09 230.236 117.434L230.107 119.262C229.513 119.668 228.552 119.949 227.224 120.105C226.833 120.152 226.458 120.176 226.099 120.176C224.115 120.176 222.474 119.598 221.177 118.441C219.872 117.277 219.22 115.789 219.22 113.977ZM228.173 112.5C227.853 110.82 226.939 109.98 225.431 109.98C224.244 109.98 223.341 110.492 222.724 111.516C222.537 111.828 222.392 112.172 222.29 112.547C222.478 112.555 222.708 112.562 222.982 112.57H223.849C224.138 112.578 224.415 112.582 224.681 112.582H225.349C225.747 112.582 226.138 112.578 226.521 112.57L227.482 112.535C227.74 112.527 227.97 112.516 228.173 112.5ZM235.967 118.5C235.967 119.188 235.998 119.688 236.061 120H233.12V107.754H235.967V108.797C236.998 107.945 238.1 107.52 239.272 107.52C240.553 107.52 241.577 107.957 242.342 108.832C243.108 109.699 243.491 110.844 243.491 112.266V116.93C243.491 118.25 243.51 119.043 243.549 119.309C243.588 119.574 243.639 119.746 243.702 119.824C243.772 119.902 243.83 119.973 243.877 120.035L243.854 120.082C243.221 120.027 242.76 120 242.471 120H241.651C241.401 120 241.065 120.012 240.643 120.035V113.648C240.643 111.359 239.948 110.215 238.557 110.215C237.526 110.215 236.663 110.746 235.967 111.809V118.5ZM251.402 117.422C252.41 117.422 253.101 117.16 253.476 116.637H253.57L253.605 119.355C253.222 119.738 252.511 119.992 251.472 120.117C251.191 120.156 250.839 120.176 250.417 120.176C250.003 120.176 249.55 120.098 249.058 119.941C248.574 119.785 248.16 119.531 247.816 119.18C247.105 118.453 246.749 117.316 246.749 115.77V110.449H244.98C244.972 110.223 244.968 109.992 244.968 109.758V107.953C244.968 107.82 244.972 107.754 244.98 107.754H246.749V104.414H249.62V107.754H252.843V110.449H249.62V115.23C249.62 116.457 249.96 117.156 250.64 117.328C250.859 117.391 251.113 117.422 251.402 117.422ZM254.145 113.941C254.145 113.082 254.289 112.262 254.578 111.48C254.875 110.691 255.297 110.004 255.844 109.418C257.039 108.152 258.59 107.52 260.496 107.52C262.395 107.52 263.903 108.117 265.02 109.312C266.09 110.453 266.625 111.934 266.625 113.754C266.625 115.574 266.075 117.082 264.973 118.277C263.809 119.543 262.266 120.176 260.344 120.176C258.36 120.176 256.805 119.555 255.68 118.312C254.657 117.18 254.145 115.723 254.145 113.941ZM256.993 113.871C256.993 114.363 257.075 114.84 257.239 115.301C257.403 115.762 257.637 116.156 257.942 116.484C258.59 117.195 259.442 117.551 260.496 117.551C261.473 117.551 262.243 117.203 262.805 116.508C263.352 115.836 263.625 114.961 263.625 113.883C263.625 112.789 263.344 111.906 262.782 111.234C262.18 110.516 261.356 110.156 260.309 110.156C259.246 110.156 258.414 110.539 257.813 111.305C257.266 112.008 256.993 112.863 256.993 113.871Z" fill="white"/>
</svg>
