<svg width="143" height="85" viewBox="0 0 143 85" fill="none" xmlns="http://www.w3.org/2000/svg">
<path d="M40.0569 30.8704C40.0569 32.6196 40.246 34.0378 40.5769 35.0779C40.9551 36.1179 41.4278 37.2525 42.0897 38.4816C42.326 38.8598 42.4206 39.238 42.4206 39.569C42.4206 40.0417 42.1369 40.5145 41.5224 40.9872L38.5441 42.9727C38.1186 43.2564 37.6931 43.3982 37.3149 43.3982C36.8422 43.3982 36.3694 43.1618 35.8967 42.7364C35.2348 42.0273 34.6675 41.2709 34.1948 40.5145C33.722 39.7108 33.2493 38.8126 32.7293 37.7253C29.0418 42.0745 24.4089 44.2492 18.8305 44.2492C14.8594 44.2492 11.692 43.1146 9.37554 40.8454C7.05908 38.5762 5.87721 35.5506 5.87721 31.7686C5.87721 27.7503 7.29545 24.4883 10.1792 22.03C13.063 19.5717 16.8922 18.3426 21.7615 18.3426C23.3689 18.3426 25.0235 18.4844 26.7726 18.7208C28.5218 18.9572 30.3183 19.3354 32.2092 19.7608V16.3098C32.2092 12.7169 31.4528 10.2113 29.9873 8.74583C28.4745 7.28031 25.9217 6.57119 22.2815 6.57119C20.6269 6.57119 18.925 6.76029 17.1759 7.18576C15.4267 7.61123 13.7248 8.13126 12.0702 8.7931C11.3138 9.12403 10.7465 9.31313 10.4156 9.40767C10.0847 9.50222 9.84829 9.5495 9.65919 9.5495C8.99735 9.5495 8.66642 9.07675 8.66642 8.08398V5.76752C8.66642 5.01112 8.76097 4.44383 8.99735 4.1129C9.23372 3.78198 9.65919 3.45106 10.321 3.12013C11.9757 2.26919 13.9612 1.56007 16.2777 0.99277C18.5941 0.378198 21.0524 0.0945495 23.6525 0.0945495C29.2782 0.0945495 33.3911 1.37097 36.0385 3.9238C38.6386 6.47664 39.9623 10.3532 39.9623 15.5534V30.8704H40.0569ZM20.8633 38.0562C22.4234 38.0562 24.0307 37.7725 25.7326 37.2052C27.4345 36.6379 28.9473 35.5979 30.2237 34.1796C30.9801 33.2814 31.5474 32.2887 31.831 31.1541C32.1147 30.0195 32.3038 28.6485 32.3038 27.0412V25.0556C30.9328 24.7247 29.4673 24.441 27.9545 24.2519C26.4417 24.0628 24.9762 23.9683 23.5107 23.9683C20.3433 23.9683 18.0268 24.5829 16.4668 25.8593C14.9067 27.1357 14.1503 28.9321 14.1503 31.2959C14.1503 33.5178 14.7176 35.1724 15.8995 36.307C17.0341 37.4889 18.6887 38.0562 20.8633 38.0562ZM58.8249 43.1618C57.974 43.1618 57.4067 43.02 57.0285 42.6891C56.6503 42.4054 56.3194 41.7436 56.0357 40.8454L44.9261 4.302C44.6425 3.35651 44.5007 2.74194 44.5007 2.41101C44.5007 1.65462 44.8789 1.22914 45.6353 1.22914H50.2682C51.1664 1.22914 51.781 1.37097 52.1119 1.70189C52.4901 1.98554 52.7738 2.64739 53.0574 3.54561L60.9996 34.8415L68.3744 3.54561C68.6108 2.60011 68.8944 1.98554 69.2726 1.70189C69.6508 1.41824 70.3127 1.22914 71.1636 1.22914H74.9456C75.8438 1.22914 76.4584 1.37097 76.8366 1.70189C77.2148 1.98554 77.5457 2.64739 77.7348 3.54561L85.2042 35.2197L93.3828 3.54561C93.6664 2.60011 93.9973 1.98554 94.3283 1.70189C94.7065 1.41824 95.321 1.22914 96.172 1.22914H100.569C101.325 1.22914 101.75 1.60734 101.75 2.41101C101.75 2.64739 101.703 2.88376 101.656 3.16741C101.609 3.45106 101.514 3.82925 101.325 4.34928L89.9317 40.8927C89.6481 41.8382 89.3171 42.4527 88.9389 42.7364C88.5607 43.02 87.9462 43.2091 87.1425 43.2091H83.0769C82.1787 43.2091 81.5641 43.0673 81.1859 42.7364C80.8077 42.4055 80.4768 41.7909 80.2877 40.8454L72.9601 10.3532L65.6798 40.7981C65.4434 41.7436 65.1597 42.3582 64.7815 42.6891C64.4033 43.02 63.7415 43.1618 62.8906 43.1618H58.8249ZM119.573 44.4383C117.115 44.4383 114.656 44.1546 112.293 43.5873C109.929 43.02 108.085 42.4055 106.856 41.6963C106.1 41.2709 105.58 40.7981 105.391 40.3726C105.201 39.9472 105.107 39.4744 105.107 39.0489V36.6379C105.107 35.6452 105.485 35.1724 106.194 35.1724C106.478 35.1724 106.762 35.2197 107.045 35.3142C107.329 35.4088 107.754 35.5979 108.227 35.787C109.834 36.4961 111.584 37.0634 113.427 37.4416C115.318 37.8198 117.162 38.0089 119.053 38.0089C122.031 38.0089 124.348 37.4889 125.955 36.4488C127.562 35.4088 128.413 33.896 128.413 31.9577C128.413 30.634 127.988 29.5467 127.137 28.6485C126.286 27.7503 124.679 26.9466 122.362 26.1902L115.507 24.0628C112.056 22.9755 109.503 21.3682 107.943 19.2408C106.383 17.1607 105.58 14.8443 105.58 12.386C105.58 10.4004 106.005 8.65128 106.856 7.13849C107.707 5.6257 108.842 4.302 110.26 3.26196C111.678 2.17464 113.285 1.37097 115.176 0.803671C117.067 0.236374 119.053 0 121.133 0C122.173 0 123.26 0.0472747 124.3 0.189099C125.388 0.330923 126.381 0.520022 127.373 0.709121C128.319 0.945495 129.217 1.18187 130.068 1.46552C130.919 1.74917 131.581 2.03281 132.054 2.31646C132.715 2.69466 133.188 3.07286 133.472 3.49833C133.755 3.87653 133.897 4.39655 133.897 5.0584V7.28031C133.897 8.27308 133.519 8.7931 132.81 8.7931C132.432 8.7931 131.817 8.604 131.013 8.22581C128.319 6.99666 125.293 6.38209 121.937 6.38209C119.242 6.38209 117.115 6.80756 115.649 7.70578C114.184 8.604 113.427 9.97497 113.427 11.9132C113.427 13.2369 113.9 14.3715 114.846 15.2697C115.791 16.168 117.54 17.0662 120.046 17.8699L126.759 19.9972C130.163 21.0845 132.621 22.5973 134.086 24.5356C135.552 26.4739 136.261 28.6958 136.261 31.1541C136.261 33.1869 135.835 35.0306 135.032 36.6379C134.181 38.2453 133.046 39.6635 131.581 40.7981C130.115 41.98 128.366 42.8309 126.333 43.4455C124.206 44.1073 121.984 44.4383 119.573 44.4383Z" fill="#252F3E"/>
<path d="M128.508 67.4138C112.955 78.9016 90.3572 85 70.9273 85C43.697 85 19.1614 74.9305 0.629708 58.1952C-0.83581 56.8715 0.487883 55.0751 2.23705 56.1151C22.2815 67.7447 47.0062 74.7887 72.5819 74.7887C89.8372 74.7887 108.794 71.1958 126.239 63.8209C128.839 62.639 131.061 65.5228 128.508 67.4138ZM134.985 60.0389C132.999 57.4861 121.842 58.8098 116.784 59.4244C115.271 59.6135 115.035 58.2898 116.406 57.297C125.293 51.0567 139.901 52.8532 141.603 54.9333C143.305 57.0606 141.13 71.6685 132.81 78.6652C131.533 79.7525 130.304 79.1852 130.872 77.767C132.763 73.0868 136.97 62.5445 134.985 60.0389Z" fill="#FF9900"/>
</svg>
