<svg width="266" height="471" viewBox="0 0 266 471" fill="none" xmlns="http://www.w3.org/2000/svg">
<rect width="265.986" height="471" fill="#44FF4B"/>
<path d="M45 103.294C45 101.995 46.0646 100.941 47.3778 100.941H84.4723C85.7855 100.941 86.8501 101.995 86.8501 103.294C86.8501 104.594 85.7855 105.647 84.4723 105.647H47.3778C46.0646 105.647 45 104.594 45 103.294Z" fill="white"/>
<path d="M49.7557 111.765C49.7557 110.465 50.8203 109.412 52.1335 109.412H89.228C90.5412 109.412 91.6058 110.465 91.6058 111.765C91.6058 113.064 90.5412 114.118 89.228 114.118H52.1335C50.8203 114.118 49.7557 113.064 49.7557 111.765Z" fill="white"/>
<path d="M45 120.235C45 118.936 46.0646 117.882 47.3778 117.882H84.4723C85.7855 117.882 86.8501 118.936 86.8501 120.235C86.8501 121.535 85.7855 122.588 84.4723 122.588H47.3778C46.0646 122.588 45 121.535 45 120.235Z" fill="white"/>
<path d="M49.7557 128.706C49.7557 127.406 50.8203 126.353 52.1335 126.353H89.228C90.5412 126.353 91.6058 127.406 91.6058 128.706C91.6058 130.005 90.5412 131.059 89.228 131.059H52.1335C50.8203 131.059 49.7557 130.005 49.7557 128.706Z" fill="white"/>
<path d="M45 137.176C45 135.877 46.0646 134.824 47.3778 134.824H84.4723C85.7855 134.824 86.8501 135.877 86.8501 137.176C86.8501 138.476 85.7855 139.529 84.4723 139.529H47.3778C46.0646 139.529 45 138.476 45 137.176Z" fill="white"/>
<path d="M49.7557 145.647C49.7557 144.348 50.8203 143.294 52.1335 143.294H89.228C90.5412 143.294 91.6058 144.348 91.6058 145.647C91.6058 146.947 90.5412 148 89.228 148H52.1335C50.8203 148 49.7557 146.947 49.7557 145.647Z" fill="white"/>
<path d="M96.8371 103.294C96.8371 101.995 97.9017 100.941 99.2149 100.941H136.309C137.623 100.941 138.687 101.995 138.687 103.294C138.687 104.594 137.623 105.647 136.309 105.647H99.2149C97.9017 105.647 96.8371 104.594 96.8371 103.294Z" fill="white"/>
<path d="M101.593 111.765C101.593 110.465 102.657 109.412 103.971 109.412H141.065C142.378 109.412 143.443 110.465 143.443 111.765C143.443 113.064 142.378 114.118 141.065 114.118H103.971C102.657 114.118 101.593 113.064 101.593 111.765Z" fill="white"/>
<path d="M96.8371 120.235C96.8371 118.936 97.9017 117.882 99.2149 117.882H136.309C137.623 117.882 138.687 118.936 138.687 120.235C138.687 121.535 137.623 122.588 136.309 122.588H99.2149C97.9017 122.588 96.8371 121.535 96.8371 120.235Z" fill="white"/>
<path d="M101.593 128.706C101.593 127.406 102.657 126.353 103.971 126.353H141.065C142.378 126.353 143.443 127.406 143.443 128.706C143.443 130.005 142.378 131.059 141.065 131.059H103.971C102.657 131.059 101.593 130.005 101.593 128.706Z" fill="white"/>
<path d="M96.8371 137.176C96.8371 135.877 97.9017 134.824 99.2149 134.824H136.309C137.623 134.824 138.687 135.877 138.687 137.176C138.687 138.476 137.623 139.529 136.309 139.529H99.2149C97.9017 139.529 96.8371 138.476 96.8371 137.176Z" fill="white"/>
<path d="M101.593 145.647C101.593 144.348 102.657 143.294 103.971 143.294H141.065C142.378 143.294 143.443 144.348 143.443 145.647C143.443 146.947 142.378 148 141.065 148H103.971C102.657 148 101.593 146.947 101.593 145.647Z" fill="white"/>
<path d="M96.8371 86.3529C96.8371 85.0534 97.9017 84 99.2149 84H136.309C137.623 84 138.687 85.0534 138.687 86.3529C138.687 87.6524 137.623 88.7059 136.309 88.7059H99.2149C97.9017 88.7059 96.8371 87.6524 96.8371 86.3529Z" fill="white"/>
<path d="M101.593 94.8235C101.593 93.524 102.657 92.4706 103.971 92.4706H141.065C142.378 92.4706 143.443 93.524 143.443 94.8235C143.443 96.123 142.378 97.1765 141.065 97.1765H103.971C102.657 97.1765 101.593 96.123 101.593 94.8235Z" fill="white"/>
<path d="M96.8371 103.294C96.8371 101.995 97.9017 100.941 99.2149 100.941H136.309C137.623 100.941 138.687 101.995 138.687 103.294C138.687 104.594 137.623 105.647 136.309 105.647H99.2149C97.9017 105.647 96.8371 104.594 96.8371 103.294Z" fill="white"/>
<path d="M101.593 111.765C101.593 110.465 102.657 109.412 103.971 109.412H141.065C142.378 109.412 143.443 110.465 143.443 111.765C143.443 113.064 142.378 114.118 141.065 114.118H103.971C102.657 114.118 101.593 113.064 101.593 111.765Z" fill="white"/>
<path d="M165.343 123.869V107.502H171.224C172.933 107.502 174.391 107.779 175.598 108.333C176.804 108.887 177.407 109.969 177.407 111.581C177.407 112.286 177.223 112.991 176.854 113.696C176.486 114.384 175.983 114.854 175.346 115.106V115.207C176.117 115.442 176.779 115.87 177.332 116.491C177.885 117.112 178.161 117.96 178.161 119.034C178.161 120.713 177.525 121.938 176.251 122.711C174.994 123.483 173.486 123.869 171.727 123.869H165.343ZM169.666 113.897H171.124C172.498 113.897 173.185 113.343 173.185 112.236C173.185 111.295 172.498 110.825 171.124 110.825H169.666V113.897ZM169.666 120.545H171.425C173.101 120.545 173.939 119.941 173.939 118.732C173.939 117.624 173.101 117.07 171.425 117.07H169.666V120.545Z" fill="white"/>
<path d="M180.733 123.869V107.502H191.289V111.128H185.056V113.696H190.384V117.322H185.056V120.243H191.541V123.869H180.733Z" fill="white"/>
<path d="M197.816 123.869V111.128H193.493V107.502H206.462V111.128H202.139V123.869H197.816Z" fill="white"/>
<path d="M212.102 115.912L211.826 117.045H214.842L214.566 115.912C214.365 115.14 214.163 114.292 213.962 113.369C213.761 112.429 213.56 111.547 213.359 110.725H213.259C213.091 111.564 212.907 112.445 212.706 113.369C212.505 114.292 212.303 115.14 212.102 115.912ZM216.426 123.869L215.621 120.394H211.047L210.242 123.869H205.819L210.795 107.502H216.023L221 123.869H216.426Z" fill="white"/>
</svg>
