<svg width="266" height="471" viewBox="0 0 266 471" fill="none" xmlns="http://www.w3.org/2000/svg">
<rect width="266" height="471" fill="#C77700"/>
<path d="M211.85 137.097C214.906 136.643 217.697 135.105 219.714 132.765C221.731 130.424 222.839 127.436 222.836 124.347C222.852 120.468 224.259 116.724 226.801 113.795C229.344 110.867 232.853 108.948 236.691 108.388L242.195 107.602C242.046 107.432 241.919 107.262 241.749 107.092C234.821 100.164 221.519 102.247 211.999 111.724C203.945 119.884 201.225 130.722 204.965 138.074L211.85 137.097Z" fill="#FFD088"/>
<path d="M226.151 124.347C226.137 128.224 224.734 131.969 222.196 134.901C219.658 137.832 216.153 139.757 212.318 140.327L207.09 141.07L207.409 141.432C214.336 148.359 227.639 146.298 237.159 136.82C245.17 128.83 247.975 117.972 244.256 110.725L237.159 111.745C234.122 112.186 231.343 113.699 229.325 116.01C227.306 118.321 226.18 121.278 226.151 124.347Z" fill="#FFD088"/>
<path d="M38.028 129.935L38.676 129.467C39.492 128.987 40.068 128.747 40.404 128.747C41.148 128.747 41.952 129.419 42.816 130.763C43.344 131.603 43.608 132.275 43.608 132.779C43.608 133.283 43.44 133.703 43.104 134.039C42.792 134.375 42.42 134.675 41.988 134.939C41.556 135.203 41.136 135.455 40.728 135.695C40.344 135.935 39.54 136.247 38.316 136.631C37.092 137.015 35.904 137.207 34.752 137.207C33.624 137.207 32.472 137.063 31.296 136.775C30.144 136.463 28.944 135.959 27.696 135.263C26.472 134.543 25.368 133.679 24.384 132.671C23.4 131.639 22.584 130.331 21.936 128.747C21.312 127.139 21 125.399 21 123.527C21 121.655 21.312 119.963 21.936 118.451C22.56 116.915 23.352 115.655 24.312 114.671C25.296 113.663 26.412 112.823 27.66 112.151C30.012 110.855 32.376 110.207 34.752 110.207C35.88 110.207 37.02 110.387 38.172 110.747C39.348 111.083 40.236 111.431 40.836 111.791L41.7 112.295C42.132 112.559 42.468 112.775 42.708 112.943C43.332 113.447 43.644 114.023 43.644 114.671C43.644 115.295 43.392 115.955 42.888 116.651C41.952 117.947 41.112 118.595 40.368 118.595C39.936 118.595 39.324 118.331 38.532 117.803C37.524 116.987 36.18 116.579 34.5 116.579C32.94 116.579 31.404 117.119 29.892 118.199C29.172 118.727 28.572 119.471 28.092 120.431C27.612 121.391 27.372 122.483 27.372 123.707C27.372 124.907 27.612 125.987 28.092 126.947C28.572 127.907 29.184 128.663 29.928 129.215C31.392 130.271 32.916 130.799 34.5 130.799C35.244 130.799 35.94 130.703 36.588 130.511C37.26 130.319 37.74 130.127 38.028 129.935Z" fill="#FFD088"/>
<path d="M45.4336 127.379C45.4336 124.499 46.4416 122.123 48.4576 120.251C50.4736 118.379 52.7776 117.443 55.3696 117.443C57.9616 117.443 60.2536 118.379 62.2456 120.251C64.2376 122.099 65.2336 124.463 65.2336 127.343C65.2336 129.335 64.7176 131.111 63.6856 132.671C62.6536 134.207 61.3936 135.347 59.9056 136.091C58.4416 136.811 56.9176 137.171 55.3336 137.171C53.7496 137.171 52.2136 136.787 50.7256 136.019C49.2376 135.227 47.9776 134.075 46.9456 132.563C45.9376 131.027 45.4336 129.299 45.4336 127.379ZM52.9576 129.971C53.7256 130.547 54.5056 130.835 55.2976 130.835C56.0896 130.835 56.8816 130.535 57.6736 129.935C58.4656 129.335 58.8616 128.447 58.8616 127.271C58.8616 126.095 58.4896 125.219 57.7456 124.643C57.0016 124.067 56.1976 123.779 55.3336 123.779C54.4696 123.779 53.6656 124.079 52.9216 124.679C52.1776 125.279 51.8056 126.167 51.8056 127.343C51.8056 128.495 52.1896 129.371 52.9576 129.971Z" fill="#FFD088"/>
<path d="M91.3555 117.875C93.0115 117.875 93.9835 118.331 94.2715 119.243C94.4155 119.699 94.4875 120.299 94.4875 121.043C94.4875 121.787 94.4035 122.387 94.2355 122.843C94.0915 123.275 93.8515 123.587 93.5155 123.779C93.0115 124.067 92.2795 124.211 91.3195 124.211L89.0155 124.067V133.715C89.0155 134.627 88.8955 135.311 88.6555 135.767C88.4395 136.199 88.0915 136.487 87.6115 136.631C87.1555 136.775 86.5555 136.847 85.8115 136.847C85.0675 136.847 84.4675 136.775 84.0115 136.631C83.5795 136.463 83.2675 136.211 83.0755 135.875C82.8835 135.515 82.7635 135.191 82.7155 134.903C82.6915 134.615 82.6795 134.195 82.6795 133.643V124.103C81.5275 124.175 80.5795 124.211 79.8355 124.211L76.3075 124.067V133.715C76.3075 134.627 76.1875 135.311 75.9475 135.767C75.7315 136.199 75.3835 136.487 74.9035 136.631C74.4475 136.775 73.8475 136.847 73.1035 136.847C72.3595 136.847 71.7595 136.775 71.3035 136.631C70.8715 136.463 70.5595 136.211 70.3675 135.875C70.1755 135.515 70.0555 135.191 70.0075 134.903C69.9835 134.615 69.9715 134.195 69.9715 133.643V124.103C69.5155 124.175 69.0235 124.211 68.4955 124.211C67.9675 124.211 67.5235 124.007 67.1635 123.599C66.8275 123.191 66.6595 122.495 66.6595 121.511C66.6595 120.527 66.7195 119.819 66.8395 119.387C66.9595 118.931 67.1275 118.607 67.3435 118.415C67.7275 118.103 68.2075 117.947 68.7835 117.947L69.9715 118.091V116.183C69.9715 114.335 70.6315 112.667 71.9515 111.179C73.2715 109.667 75.1795 108.911 77.6755 108.911C78.2275 108.911 78.6355 108.935 78.8995 108.983C79.1875 109.007 79.5115 109.103 79.8715 109.271C80.5195 109.607 80.8435 110.543 80.8435 112.079C80.8435 113.231 80.6395 114.047 80.2315 114.527C79.8955 114.935 79.3675 115.151 78.6475 115.175C78.4315 115.199 78.0955 115.211 77.6395 115.211C76.7515 115.211 76.3075 115.511 76.3075 116.111V118.091C77.6035 117.995 78.7195 117.947 79.6555 117.947L82.6795 118.091V116.183C82.6795 114.335 83.3395 112.667 84.6595 111.179C85.9795 109.667 87.8875 108.911 90.3835 108.911C90.9595 108.911 91.3795 108.935 91.6435 108.983C91.9075 109.007 92.2195 109.103 92.5795 109.271C93.2275 109.607 93.5515 110.543 93.5515 112.079C93.5515 113.231 93.3475 114.047 92.9395 114.527C92.6035 114.935 92.0875 115.151 91.3915 115.175C91.1515 115.199 90.8035 115.211 90.3475 115.211C89.4595 115.211 89.0155 115.511 89.0155 116.111V118.091L91.3555 117.875Z" fill="#FFD088"/>
<path d="M114.746 125.111C114.746 126.575 114.374 127.667 113.63 128.387C112.91 129.083 112.106 129.431 111.218 129.431H102.686C102.686 130.103 103.082 130.667 103.874 131.123C104.666 131.579 105.458 131.807 106.25 131.807C107.642 131.807 108.734 131.663 109.526 131.375L109.922 131.231C110.498 130.967 110.978 130.835 111.362 130.835C112.13 130.835 112.79 131.375 113.342 132.455C113.654 133.103 113.81 133.655 113.81 134.111C113.81 136.247 111.254 137.315 106.142 137.315C104.366 137.315 102.782 137.015 101.39 136.415C100.022 135.791 98.954 134.975 98.186 133.967C96.674 132.023 95.918 129.851 95.918 127.451C95.918 124.427 96.89 122.015 98.834 120.215C100.802 118.391 103.25 117.479 106.178 117.479C109.514 117.479 111.962 118.655 113.522 121.007C114.338 122.255 114.746 123.623 114.746 125.111ZM107.15 126.155C108.062 126.155 108.518 125.771 108.518 125.003C108.518 124.451 108.302 124.007 107.87 123.671C107.462 123.335 106.862 123.167 106.07 123.167C105.302 123.167 104.534 123.491 103.766 124.139C102.998 124.763 102.614 125.435 102.614 126.155H107.15Z" fill="#FFD088"/>
<path d="M135.383 125.111C135.383 126.575 135.011 127.667 134.267 128.387C133.547 129.083 132.743 129.431 131.855 129.431H123.323C123.323 130.103 123.719 130.667 124.511 131.123C125.303 131.579 126.095 131.807 126.887 131.807C128.279 131.807 129.371 131.663 130.163 131.375L130.559 131.231C131.135 130.967 131.615 130.835 131.999 130.835C132.767 130.835 133.427 131.375 133.979 132.455C134.291 133.103 134.447 133.655 134.447 134.111C134.447 136.247 131.891 137.315 126.779 137.315C125.003 137.315 123.419 137.015 122.027 136.415C120.659 135.791 119.591 134.975 118.823 133.967C117.311 132.023 116.555 129.851 116.555 127.451C116.555 124.427 117.527 122.015 119.471 120.215C121.439 118.391 123.887 117.479 126.815 117.479C130.151 117.479 132.599 118.655 134.159 121.007C134.975 122.255 135.383 123.623 135.383 125.111ZM127.787 126.155C128.699 126.155 129.155 125.771 129.155 125.003C129.155 124.451 128.939 124.007 128.507 123.671C128.099 123.335 127.499 123.167 126.707 123.167C125.939 123.167 125.171 123.491 124.403 124.139C123.635 124.763 123.251 125.435 123.251 126.155H127.787Z" fill="#FFD088"/>
<path d="M138.127 133.139C137.503 132.371 137.191 131.687 137.191 131.087C137.191 130.463 137.707 129.647 138.739 128.639C139.339 128.063 139.975 127.775 140.647 127.775C141.319 127.775 142.255 128.375 143.455 129.575C143.791 129.983 144.271 130.379 144.895 130.763C145.519 131.123 146.095 131.303 146.623 131.303C148.855 131.303 149.971 130.391 149.971 128.567C149.971 128.015 149.659 127.559 149.035 127.199C148.435 126.815 147.679 126.539 146.767 126.371C145.855 126.203 144.871 125.939 143.815 125.579C142.759 125.195 141.775 124.751 140.863 124.247C139.951 123.743 139.183 122.951 138.559 121.871C137.959 120.767 137.659 119.447 137.659 117.911C137.659 115.799 138.439 113.963 139.999 112.403C141.583 110.819 143.731 110.027 146.443 110.027C147.883 110.027 149.191 110.219 150.367 110.603C151.567 110.963 152.395 111.335 152.851 111.719L153.751 112.403C154.495 113.099 154.867 113.687 154.867 114.167C154.867 114.647 154.579 115.307 154.003 116.147C153.187 117.347 152.347 117.947 151.483 117.947C150.979 117.947 150.355 117.707 149.611 117.227C149.539 117.179 149.395 117.059 149.179 116.867C148.987 116.675 148.807 116.519 148.639 116.399C148.135 116.087 147.487 115.931 146.695 115.931C145.927 115.931 145.279 116.123 144.751 116.507C144.247 116.867 143.995 117.383 143.995 118.055C143.995 118.703 144.295 119.231 144.895 119.639C145.519 120.047 146.287 120.323 147.199 120.467C148.111 120.611 149.107 120.839 150.187 121.151C151.267 121.439 152.263 121.799 153.175 122.231C154.087 122.663 154.843 123.419 155.443 124.499C156.067 125.555 156.379 126.863 156.379 128.423C156.379 129.983 156.067 131.363 155.443 132.563C154.819 133.739 154.003 134.651 152.995 135.299C151.051 136.571 148.975 137.207 146.767 137.207C145.639 137.207 144.571 137.075 143.563 136.811C142.555 136.523 141.739 136.175 141.115 135.767C139.843 134.999 138.955 134.255 138.451 133.535L138.127 133.139Z" fill="#FFD088"/>
<path d="M189.202 110.603C190.81 111.179 191.614 111.947 191.614 112.907C191.614 113.219 191.47 113.807 191.182 114.671L184.27 134.651C184.222 134.819 184.138 135.023 184.018 135.263C183.898 135.503 183.574 135.827 183.046 136.235C182.542 136.619 181.93 136.811 181.21 136.811C180.514 136.811 179.902 136.619 179.374 136.235C178.87 135.827 178.534 135.431 178.366 135.047L174.154 122.627C171.49 130.499 170.134 134.507 170.086 134.651C170.038 134.795 169.93 134.999 169.762 135.263C169.594 135.527 169.402 135.767 169.186 135.983C168.634 136.535 167.974 136.811 167.206 136.811C166.438 136.811 165.802 136.631 165.298 136.271C164.818 135.911 164.494 135.551 164.326 135.191L164.074 134.651L157.126 114.671C156.862 113.879 156.73 113.291 156.73 112.907C156.73 111.947 157.534 111.191 159.142 110.639C159.838 110.399 160.462 110.279 161.014 110.279C161.59 110.279 162.022 110.471 162.31 110.855C162.622 111.239 162.898 111.827 163.138 112.619L167.098 124.643L171.022 112.799C171.358 111.791 171.97 111.095 172.858 110.711C173.242 110.543 173.734 110.459 174.334 110.459C174.958 110.459 175.534 110.663 176.062 111.071C176.59 111.455 176.926 111.839 177.07 112.223L181.21 124.715L185.17 112.619C185.362 112.067 185.518 111.659 185.638 111.395C185.758 111.131 185.974 110.879 186.286 110.639C186.622 110.375 187.03 110.243 187.51 110.243C187.99 110.243 188.554 110.363 189.202 110.603Z" fill="#FFD088"/>
</svg>
