<svg width="266" height="471" viewBox="0 0 266 471" fill="none" xmlns="http://www.w3.org/2000/svg">
<rect width="265.986" height="471" fill="#44FF4B"/>
<path d="M72.967 115.673C72.967 114.072 74.2676 112.775 75.872 112.775H121.189C122.794 112.775 124.094 114.072 124.094 115.673C124.094 117.273 122.794 118.571 121.189 118.571H75.872C74.2676 118.571 72.967 117.273 72.967 115.673Z" fill="white"/>
<path d="M78.7769 126.106C78.7769 124.506 80.0775 123.208 81.6819 123.208H126.999C128.603 123.208 129.904 124.506 129.904 126.106C129.904 127.707 128.603 129.005 126.999 129.005H81.6819C80.0775 129.005 78.7769 127.707 78.7769 126.106Z" fill="white"/>
<path d="M72.967 136.54C72.967 134.939 74.2676 133.642 75.872 133.642H121.189C122.794 133.642 124.094 134.939 124.094 136.54C124.094 138.141 122.794 139.438 121.189 139.438H75.872C74.2676 139.438 72.967 138.141 72.967 136.54Z" fill="white"/>
<path d="M78.7769 146.974C78.7769 145.373 80.0775 144.076 81.6819 144.076H126.999C128.603 144.076 129.904 145.373 129.904 146.974C129.904 148.574 128.603 149.872 126.999 149.872H81.6819C80.0775 149.872 78.7769 148.574 78.7769 146.974Z" fill="white"/>
<path d="M72.967 157.407C72.967 155.807 74.2676 154.509 75.872 154.509H121.189C122.794 154.509 124.094 155.807 124.094 157.407C124.094 159.008 122.794 160.306 121.189 160.306H75.872C74.2676 160.306 72.967 159.008 72.967 157.407Z" fill="white"/>
<path d="M78.7769 167.841C78.7769 166.24 80.0775 164.943 81.6819 164.943H126.999C128.603 164.943 129.904 166.24 129.904 167.841C129.904 169.442 128.603 170.739 126.999 170.739H81.6819C80.0775 170.739 78.7769 169.442 78.7769 167.841Z" fill="white"/>
<path d="M136.295 115.673C136.295 114.072 137.596 112.775 139.2 112.775H184.517C186.121 112.775 187.422 114.072 187.422 115.673C187.422 117.273 186.121 118.571 184.517 118.571H139.2C137.596 118.571 136.295 117.273 136.295 115.673Z" fill="white"/>
<path d="M142.105 126.106C142.105 124.506 143.405 123.208 145.01 123.208H190.327C191.931 123.208 193.232 124.506 193.232 126.106C193.232 127.707 191.931 129.005 190.327 129.005H145.01C143.405 129.005 142.105 127.707 142.105 126.106Z" fill="white"/>
<path d="M136.295 136.54C136.295 134.939 137.596 133.642 139.2 133.642H184.517C186.121 133.642 187.422 134.939 187.422 136.54C187.422 138.141 186.121 139.438 184.517 139.438H139.2C137.596 139.438 136.295 138.141 136.295 136.54Z" fill="white"/>
<path d="M142.105 146.974C142.105 145.373 143.405 144.076 145.01 144.076H190.327C191.931 144.076 193.232 145.373 193.232 146.974C193.232 148.574 191.931 149.872 190.327 149.872H145.01C143.405 149.872 142.105 148.574 142.105 146.974Z" fill="white"/>
<path d="M136.295 157.407C136.295 155.807 137.596 154.509 139.2 154.509H184.517C186.121 154.509 187.422 155.807 187.422 157.407C187.422 159.008 186.121 160.306 184.517 160.306H139.2C137.596 160.306 136.295 159.008 136.295 157.407Z" fill="white"/>
<path d="M142.105 167.841C142.105 166.24 143.405 164.943 145.01 164.943H190.327C191.931 164.943 193.232 166.24 193.232 167.841C193.232 169.442 191.931 170.739 190.327 170.739H145.01C143.405 170.739 142.105 169.442 142.105 167.841Z" fill="white"/>
<path d="M136.295 94.8055C136.295 93.2048 137.596 91.9073 139.2 91.9073H184.517C186.121 91.9073 187.422 93.2048 187.422 94.8055C187.422 96.4061 186.121 97.7037 184.517 97.7037H139.2C137.596 97.7037 136.295 96.4061 136.295 94.8055Z" fill="white"/>
<path d="M142.105 105.239C142.105 103.639 143.405 102.341 145.01 102.341H190.327C191.931 102.341 193.232 103.639 193.232 105.239C193.232 106.84 191.931 108.137 190.327 108.137H145.01C143.405 108.137 142.105 106.84 142.105 105.239Z" fill="white"/>
<path d="M136.295 115.673C136.295 114.072 137.596 112.775 139.2 112.775H184.517C186.121 112.775 187.422 114.072 187.422 115.673C187.422 117.273 186.121 118.571 184.517 118.571H139.2C137.596 118.571 136.295 117.273 136.295 115.673Z" fill="white"/>
<path d="M142.105 126.106C142.105 124.506 143.405 123.208 145.01 123.208H190.327C191.931 123.208 193.232 124.506 193.232 126.106C193.232 127.707 191.931 129.005 190.327 129.005H145.01C143.405 129.005 142.105 127.707 142.105 126.106Z" fill="white"/>
<path d="M77.0339 82.9227C77.0339 69.6373 87.8288 58.8673 101.145 58.8673C114.461 58.8673 125.256 69.6373 125.256 82.9227C125.256 96.2081 114.461 106.978 101.145 106.978C87.8288 106.978 77.0339 96.2081 77.0339 82.9227Z" fill="white"/>
<path d="M92.7486 79.1875C92.7486 75.3046 94.5953 72.8562 98.2889 71.8422V68.4663H104.499V71.5454C106.73 71.768 108.341 71.9658 109.332 72.1389L108.477 78.6681C105.379 78.0498 103.346 77.7407 102.379 77.7407C101.412 77.7407 100.929 78.0374 100.929 78.631C100.929 78.8536 101.003 79.0143 101.152 79.1133C101.301 79.1875 101.412 79.2493 101.487 79.2988C101.561 79.3482 101.697 79.41 101.896 79.4842C102.119 79.5584 102.292 79.6326 102.416 79.7068C102.565 79.7563 103.011 79.9418 103.755 80.2633C104.523 80.5601 105.093 80.8074 105.465 81.0052C105.862 81.1784 106.395 81.4751 107.064 81.8956C108.998 83.1569 109.964 85.0612 109.964 87.6086C109.964 89.3398 109.481 90.8608 108.514 92.1716C107.548 93.4576 106.209 94.3109 104.499 94.7313V97.8475H98.2889V94.991C96.6032 94.8426 94.9796 94.5705 93.4179 94.1748L93.9384 87.9054C97.2601 88.7462 99.5035 89.1667 100.669 89.1667C101.437 89.1667 101.821 88.8946 101.821 88.3505C101.821 88.1032 101.722 87.9054 101.524 87.757C101.35 87.6086 101.078 87.4478 100.706 87.2747C100.359 87.1016 99.8382 86.879 99.1441 86.607C98.45 86.3102 97.8675 86.0629 97.3965 85.865C96.9255 85.6424 96.3677 85.3085 95.7232 84.8634C93.7401 83.5031 92.7486 81.6112 92.7486 79.1875Z" fill="#44FF4B"/>
<path d="M140.362 62.0554C140.362 48.77 151.157 38 164.473 38C177.789 38 188.584 48.77 188.584 62.0554C188.584 75.3408 177.789 86.1108 164.473 86.1108C151.157 86.1108 140.362 75.3408 140.362 62.0554Z" fill="white"/>
<path d="M156.076 58.3201C156.076 54.4373 157.923 51.9888 161.617 50.9748V47.599H167.826V50.6781C170.057 50.9006 171.669 51.0985 172.66 51.2716L171.805 57.8008C168.706 57.1825 166.674 56.8733 165.707 56.8733C164.74 56.8733 164.257 57.1701 164.257 57.7637C164.257 57.9863 164.331 58.147 164.48 58.2459C164.629 58.3201 164.74 58.382 164.815 58.4314C164.889 58.4809 165.025 58.5427 165.224 58.6169C165.447 58.6911 165.62 58.7653 165.744 58.8395C165.893 58.889 166.339 59.0745 167.083 59.396C167.851 59.6927 168.421 59.9401 168.793 60.1379C169.19 60.311 169.723 60.6078 170.392 61.0282C172.326 62.2896 173.292 64.1939 173.292 66.7413C173.292 68.4725 172.809 69.9935 171.842 71.3043C170.875 72.5903 169.537 73.4435 167.826 73.864V76.9802H161.617V74.1237C159.931 73.9753 158.308 73.7032 156.746 73.3075L157.266 67.038C160.588 67.8789 162.831 68.2994 163.997 68.2994C164.765 68.2994 165.149 68.0273 165.149 67.4832C165.149 67.2359 165.05 67.038 164.852 66.8897C164.678 66.7413 164.406 66.5805 164.034 66.4074C163.687 66.2343 163.166 66.0117 162.472 65.7396C161.778 65.4428 161.195 65.1955 160.724 64.9977C160.253 64.7751 159.696 64.4412 159.051 63.996C157.068 62.6358 156.076 60.7438 156.076 58.3201Z" fill="#44FF4B"/>
<path d="M65.0237 191.291C65.0237 192.701 65.1817 193.731 65.4978 194.38C65.8139 195.01 66.3437 195.326 67.0874 195.326C67.8311 195.326 69.0674 195.122 70.7964 194.714L71.6888 199.137C69.8668 199.712 68.1099 200 66.4181 200C63.8338 200 61.9468 199.267 60.7569 197.802C59.5856 196.318 59 194.12 59 191.208C59 188.277 59.6135 186.042 60.8406 184.503C62.0676 182.944 64.0662 182.165 66.8364 182.165C68.4539 182.165 70.0714 182.481 71.6888 183.111L70.7685 188.064C68.928 187.526 67.6637 187.257 66.9758 187.257C66.3065 187.257 65.8139 187.582 65.4978 188.231C65.1817 188.861 65.0237 189.882 65.0237 191.291Z" fill="white"/>
<path d="M84.0386 189.984L83.8713 195.548C83.8713 195.808 83.9643 195.984 84.1502 196.077C84.3547 196.151 84.7079 196.188 85.2099 196.188L84.6801 199.889C83.5646 199.963 82.8116 200 82.4212 200C81.064 200 80.0786 199.638 79.4651 198.915H79.2699C78.3775 199.638 77.2527 200 75.8955 200C74.5569 200 73.5343 199.648 72.8279 198.943C72.14 198.219 71.796 197.227 71.796 195.966C71.796 194.408 72.3166 193.322 73.3577 192.71C74.4174 192.098 76.0907 191.709 78.3775 191.542V191.041C78.3775 190.707 78.2009 190.54 77.8476 190.54C76.8994 190.54 75.2727 190.828 72.9673 191.403L72.1028 187.007C74.7614 186.376 77.0482 186.061 78.9631 186.061C80.8781 186.061 82.1981 186.376 82.9231 187.007C83.6668 187.637 84.0386 188.63 84.0386 189.984ZM77.7361 196.411C78.2752 196.411 78.5448 196.133 78.5448 195.576V194.519C77.578 194.649 77.0947 195.02 77.0947 195.632C77.0947 196.151 77.3085 196.411 77.7361 196.411Z" fill="white"/>
<path d="M86.2145 196.272V181.887H91.9315V194.992C91.9315 195.493 92.2754 195.743 92.9633 195.743L92.545 200H90.2582C87.5624 200 86.2145 198.757 86.2145 196.272Z" fill="white"/>
<path d="M100.776 190.429C100.274 190.429 99.9389 190.651 99.7716 191.097C99.6228 191.542 99.5485 192.228 99.5485 193.156C99.5485 194.083 99.6228 194.76 99.7716 195.187C99.9203 195.595 100.274 195.799 100.831 195.799C101.389 195.799 102.272 195.678 103.481 195.437L104.094 199.304C102.458 199.768 101.082 200 99.9668 200C97.9031 200 96.3414 199.406 95.2817 198.219C94.2405 197.032 93.72 195.372 93.72 193.239C93.72 191.106 94.2591 189.381 95.3375 188.064C96.4158 186.728 97.9868 186.061 100.05 186.061C101.556 186.061 102.979 186.311 104.317 186.812L103.732 191.208C102.281 190.689 101.296 190.429 100.776 190.429Z" fill="white"/>
<path d="M109.183 200C106.543 200 105.222 198.739 105.222 196.216V186.394H111.079V195.131C111.079 195.428 111.209 195.576 111.469 195.576C111.748 195.576 112.111 195.483 112.557 195.298V186.394H118.385V199.666H112.808V198.971H112.641C111.562 199.657 110.41 200 109.183 200Z" fill="white"/>
<path d="M120.311 196.272V181.887H126.028V194.992C126.028 195.493 126.372 195.743 127.06 195.743L126.642 200H124.355C121.659 200 120.311 198.757 120.311 196.272Z" fill="white"/>
<path d="M140.032 189.984L139.864 195.548C139.864 195.808 139.957 195.984 140.143 196.077C140.348 196.151 140.701 196.188 141.203 196.188L140.673 199.889C139.557 199.963 138.805 200 138.414 200C137.057 200 136.072 199.638 135.458 198.915H135.263C134.37 199.638 133.246 200 131.888 200C130.55 200 129.527 199.648 128.821 198.943C128.133 198.219 127.789 197.227 127.789 195.966C127.789 194.408 128.31 193.322 129.351 192.71C130.41 192.098 132.084 191.709 134.37 191.542V191.041C134.37 190.707 134.194 190.54 133.841 190.54C132.892 190.54 131.266 190.828 128.96 191.403L128.096 187.007C130.754 186.376 133.041 186.061 134.956 186.061C136.871 186.061 138.191 186.376 138.916 187.007C139.66 187.637 140.032 188.63 140.032 189.984ZM133.729 196.411C134.268 196.411 134.538 196.133 134.538 195.576V194.519C133.571 194.649 133.088 195.02 133.088 195.632C133.088 196.151 133.301 196.411 133.729 196.411Z" fill="white"/>
<path d="M150.072 195.465C150.406 195.465 150.853 195.409 151.41 195.298V193.629H150.016V189.789H156.597V199.722H152.386L151.968 198.831H151.857C150.89 199.61 149.746 200 148.426 200C144.076 200 141.901 197.069 141.901 191.208C141.901 188.277 142.486 186.042 143.658 184.503C144.847 182.944 146.846 182.165 149.653 182.165C151.736 182.165 153.706 182.453 155.566 183.028L154.645 188.259C152.563 187.684 151.066 187.396 150.155 187.396C149.263 187.396 148.668 187.693 148.371 188.286C148.092 188.88 147.952 189.891 147.952 191.319C147.952 192.747 148.082 193.795 148.343 194.463C148.622 195.131 149.198 195.465 150.072 195.465Z" fill="white"/>
<path d="M170.452 189.984L170.285 195.548C170.285 195.808 170.378 195.984 170.563 196.077C170.768 196.151 171.121 196.188 171.623 196.188L171.093 199.889C169.978 199.963 169.225 200 168.834 200C167.477 200 166.492 199.638 165.878 198.915H165.683C164.791 199.638 163.666 200 162.309 200C160.97 200 159.948 199.648 159.241 198.943C158.553 198.219 158.209 197.227 158.209 195.966C158.209 194.408 158.73 193.322 159.771 192.71C160.831 192.098 162.504 191.709 164.791 191.542V191.041C164.791 190.707 164.614 190.54 164.261 190.54C163.313 190.54 161.686 190.828 159.381 191.403L158.516 187.007C161.175 186.376 163.461 186.061 165.376 186.061C167.291 186.061 168.611 186.376 169.336 187.007C170.08 187.637 170.452 188.63 170.452 189.984ZM164.149 196.411C164.688 196.411 164.958 196.133 164.958 195.576V194.519C163.991 194.649 163.508 195.02 163.508 195.632C163.508 196.151 163.722 196.411 164.149 196.411Z" fill="white"/>
<path d="M182.807 195.576C182.807 198.525 181.087 200 177.648 200C175.863 200 174.134 199.805 172.46 199.416L172.823 195.326C175.147 195.882 176.69 196.16 177.452 196.16C177.713 196.16 177.843 196.077 177.843 195.91C177.843 195.743 177.694 195.604 177.397 195.493C175.482 194.843 174.087 194.157 173.213 193.434C172.34 192.71 171.903 191.672 171.903 190.318C171.903 188.963 172.377 187.915 173.325 187.174C174.292 186.432 175.584 186.061 177.201 186.061C178.837 186.061 180.631 186.246 182.584 186.617L181.998 190.818C179.544 190.336 178.057 190.095 177.536 190.095C177.294 190.095 177.173 190.188 177.173 190.373C177.173 190.522 177.331 190.651 177.648 190.763C179.191 191.264 180.306 191.764 180.994 192.265C181.682 192.747 182.156 193.248 182.416 193.768C182.677 194.287 182.807 194.89 182.807 195.576Z" fill="white"/>
<path d="M188.7 200C187.25 200 186.181 199.731 185.493 199.193C184.824 198.637 184.489 197.691 184.489 196.355V190.318H183.011V186.561H184.768L185.13 184.085H190.289V186.561H192.827V190.318H190.262V195.465C190.262 195.706 190.373 195.827 190.596 195.827C190.615 195.827 191.349 195.789 192.799 195.715L192.632 199.722C190.773 199.907 189.462 200 188.7 200Z" fill="white"/>
<path d="M193.614 193.016C193.614 190.568 194.153 188.797 195.231 187.702C196.328 186.608 198.03 186.061 200.335 186.061C202.659 186.061 204.351 186.599 205.41 187.674C206.47 188.75 207 190.522 207 192.989C207 195.437 206.479 197.218 205.438 198.331C204.416 199.444 202.724 200 200.363 200C198.02 200 196.31 199.444 195.231 198.331C194.153 197.218 193.614 195.446 193.614 193.016ZM201.06 190.651C200.967 190.318 200.725 190.151 200.335 190.151C199.944 190.151 199.693 190.318 199.582 190.651C199.489 190.967 199.442 191.653 199.442 192.71V193.378C199.442 194.565 199.489 195.335 199.582 195.687C199.693 196.021 199.944 196.188 200.335 196.188C200.725 196.188 200.967 196.021 201.06 195.687C201.172 195.335 201.227 194.612 201.227 193.517V192.738C201.227 191.662 201.172 190.967 201.06 190.651Z" fill="white"/>
</svg>
