<svg width="266" height="471" viewBox="0 0 266 471" fill="none" xmlns="http://www.w3.org/2000/svg">
<rect width="265.986" height="471" fill="#FFA800"/>
<path d="M57.0008 83C60.0993 83 62.3008 83.6759 63.6055 85.0277C64.5839 86.0551 65.0732 87.3528 65.0732 88.9209C65.0732 89.4616 65.0188 90.0293 64.9101 90.6241L64.3393 93.7873C64.0132 95.5447 63.4424 96.9641 62.627 98.0455C61.8388 99.1269 60.9555 99.8975 59.977 100.357L63.687 112.199H55.4516L52.027 101.29H49.4993L47.8277 112.199H40L45.1777 83H57.0008ZM54.4324 89.3264H51.3747L50.3146 96.3828H53.1685C54.609 96.3828 55.6418 96.0448 56.267 95.3689C56.8921 94.666 57.2047 93.7468 57.2047 92.6113C57.2047 90.4214 56.2806 89.3264 54.4324 89.3264Z" fill="#654300"/>
<path d="M78.8284 92.1246C81.7637 92.1246 83.9789 92.76 85.4738 94.0307C86.6425 95.031 87.2268 96.4233 87.2268 98.2077C87.2268 98.8025 87.1589 99.4514 87.023 100.154L86.1668 104.899C85.6504 107.765 84.4409 109.793 82.5384 110.982C80.663 112.172 78.1489 112.767 74.996 112.767C71.8432 112.767 69.5329 112.172 68.0652 110.982C66.9781 110.09 66.4345 108.752 66.4345 106.967C66.4345 106.346 66.5024 105.656 66.6383 104.899L67.4945 100.154C68.4458 94.8012 72.2237 92.1246 78.8284 92.1246ZM79.9291 100.965C79.9835 100.695 80.0107 100.357 80.0107 99.9515C80.0107 99.519 79.834 99.0458 79.4807 98.5321C79.1273 98.0185 78.5022 97.7616 77.6053 97.7616C76.7355 97.7616 76.0017 98.059 75.4037 98.6538C74.8058 99.2216 74.4253 99.9921 74.2622 100.965L73.7322 104.007C73.6778 104.277 73.6506 104.629 73.6506 105.061C73.6506 105.467 73.8273 105.913 74.1806 106.4C74.534 106.886 75.1455 107.13 76.0153 107.13C76.9122 107.13 77.6596 106.832 78.2576 106.237C78.8555 105.616 79.236 104.872 79.3991 104.007L79.9291 100.965Z" fill="#654300"/>
<path d="M109.302 105.954C109.302 106.656 109.655 107.008 110.362 107.008C111.095 107.008 111.707 106.873 112.196 106.602L111.992 111.185C110.688 112.239 109.22 112.767 107.589 112.767C104.518 112.767 102.846 111.591 102.575 109.238C100.944 111.591 98.7423 112.767 95.97 112.767C93.2248 112.767 91.4446 112.145 90.6292 110.901C90.0856 110.117 89.8138 109.225 89.8138 108.225C89.8138 107.224 89.8953 106.305 90.0584 105.467L92.3415 92.6924H99.2723L97.3561 103.48C97.2746 103.966 97.2338 104.453 97.2338 104.94C97.2338 106.237 97.9677 106.886 99.4354 106.886C100.658 106.886 101.637 106.467 102.371 105.629L104.695 92.6924H111.625L109.342 105.467C109.315 105.629 109.302 105.791 109.302 105.954Z" fill="#654300"/>
<path d="M123.458 112.767C120.305 112.767 118.036 112.064 116.65 110.658C115.617 109.63 115.1 108.252 115.1 106.521C115.1 105.954 115.155 105.345 115.263 104.696L118.036 89.002L125.497 85.9199L124.314 92.6924H135.567L134.547 98.4105H123.295L122.48 102.993C122.371 103.507 122.317 103.966 122.317 104.372C122.317 106.075 123.132 106.927 124.763 106.927C125.632 106.927 126.353 106.562 126.923 105.832C127.521 105.102 127.929 104.129 128.147 102.912H134.914C133.773 109.482 129.954 112.767 123.458 112.767Z" fill="#654300"/>
<path d="M145.344 112.767C139.691 112.767 136.864 110.82 136.864 106.927C136.864 106.386 136.919 105.805 137.027 105.183L137.883 100.154C138.345 97.5589 139.541 95.5717 141.471 94.1929C143.428 92.787 146.01 92.0841 149.217 92.0841C154.68 92.0841 157.412 94.1388 157.412 98.2483C157.412 98.8431 157.358 99.4919 157.249 100.195L156.76 103.074H144.325L144.162 104.007C144.108 104.331 144.08 104.629 144.08 104.899C144.08 106.386 144.964 107.13 146.73 107.13C147.383 107.13 147.94 106.927 148.402 106.521C148.864 106.116 149.136 105.643 149.217 105.102L155.985 105.183C155.088 110.239 151.541 112.767 145.344 112.767ZM150.237 100.6C150.345 100.141 150.4 99.7217 150.4 99.3432C150.4 98.9377 150.223 98.5321 149.87 98.1266C149.516 97.7211 148.945 97.5183 148.157 97.5183C147.396 97.5183 146.69 97.7751 146.037 98.2888C145.412 98.8025 144.977 99.573 144.733 100.6H150.237Z" fill="#654300"/>
<path d="M178.072 112.199H159.481L164.659 83H171.997L167.961 105.872H179.214L178.072 112.199Z" fill="#654300"/>
<path d="M193.651 92.1246C196.587 92.1246 198.802 92.76 200.297 94.0307C201.466 95.031 202.05 96.4233 202.05 98.2077C202.05 98.8025 201.982 99.4514 201.846 100.154L200.99 104.899C200.473 107.765 199.264 109.793 197.361 110.982C195.486 112.172 192.972 112.767 189.819 112.767C186.666 112.767 184.356 112.172 182.888 110.982C181.801 110.09 181.258 108.752 181.258 106.967C181.258 106.346 181.325 105.656 181.461 104.899L182.318 100.154C183.269 94.8012 187.047 92.1246 193.651 92.1246ZM194.752 100.965C194.807 100.695 194.834 100.357 194.834 99.9515C194.834 99.519 194.657 99.0458 194.304 98.5321C193.95 98.0185 193.325 97.7616 192.428 97.7616C191.559 97.7616 190.825 98.059 190.227 98.6538C189.629 99.2216 189.248 99.9921 189.085 100.965L188.555 104.007C188.501 104.277 188.474 104.629 188.474 105.061C188.474 105.467 188.65 105.913 189.004 106.4C189.357 106.886 189.969 107.13 190.838 107.13C191.735 107.13 192.483 106.832 193.081 106.237C193.679 105.616 194.059 104.872 194.222 104.007L194.752 100.965Z" fill="#654300"/>
<path d="M222.412 112.848C221.814 116.281 220.442 118.998 218.295 120.999C216.175 123 213.742 124 210.997 124C208.252 124 206.268 123.5 205.045 122.5C203.849 121.499 203.251 120.188 203.251 118.566C203.251 116.187 204.773 114.118 207.817 112.361C205.507 111.631 204.351 109.887 204.351 107.13C204.351 106.454 204.419 105.71 204.555 104.899L205.371 100.154C205.806 97.7211 206.811 95.788 208.388 94.3551C209.964 92.8952 212.003 92.1652 214.503 92.1652C217.031 92.1652 218.757 92.7735 219.681 93.9901L219.925 92.6924H226L222.412 112.848ZM211.649 104.007C211.595 104.25 211.568 104.588 211.568 105.021C211.568 105.453 211.771 105.886 212.179 106.318C212.587 106.724 213.266 106.927 214.218 106.927C215.196 106.927 216.039 106.548 216.745 105.791L217.968 98.9782C217.588 98.3023 216.868 97.9644 215.808 97.9644C214.748 97.9644 213.919 98.2348 213.321 98.7755C212.723 99.3162 212.342 100.046 212.179 100.965L211.649 104.007ZM211.935 118.201C213.701 118.201 214.856 116.606 215.4 113.415L215.808 111.063C212.03 112.821 210.141 114.591 210.141 116.376C210.141 116.917 210.29 117.349 210.589 117.674C210.915 118.025 211.364 118.201 211.935 118.201Z" fill="#654300"/>
</svg>
