<svg width="266" height="471" viewBox="0 0 266 471" fill="none" xmlns="http://www.w3.org/2000/svg">
<rect width="265.986" height="471" fill="#FF3636"/>
<path d="M72.2505 109.096C71.8904 115.938 68.5893 121.7 61.6268 121.7H50.8231V80.2855H56.225V79.9854H39.5992V80.2855H45.0611V121.7H39.5992V122H72.5506V109.096H72.2505ZM83.1758 121.7V94.2103H73.4524V94.5104H78.014V121.7H73.4524V122H87.7974V121.7H83.1758ZM80.5949 88.3283C82.2154 88.3283 83.5359 87.0078 83.5359 85.3872C83.5359 83.7667 82.2154 82.5062 80.5949 82.5062C79.0343 82.5062 77.7139 83.7667 77.7139 85.3872C77.7139 87.0078 79.0343 88.3283 80.5949 88.3283ZM114.008 94.2103H104.284V94.5104H109.146L100.563 115.758L92.1602 94.5104H97.0819V94.2103H82.7369V94.5104H86.5782L97.6221 122.42H98.2223L109.446 94.5104H114.008V94.2103ZM125.833 93.6701C119.591 93.6701 117.31 101.713 116.89 107.415V94.2103H107.406V94.5104H111.968V121.7H107.406V122H121.751V121.7H117.13V108.855C117.13 103.153 119.831 94.8105 123.852 94.8105C127.633 94.8105 125.113 99.6122 128.474 99.6122C129.974 99.6122 130.574 98.4718 130.574 97.1513C130.574 95.1707 128.774 93.6701 125.833 93.6701ZM157.85 118.339C157.31 120.019 156.169 121.7 154.549 121.7C152.568 121.7 152.748 119.419 152.748 116.718V105.074C152.748 97.6915 149.567 93.6701 141.824 93.6701C137.143 93.6701 131.921 96.131 131.921 100.272C131.921 101.713 132.821 102.853 134.202 102.853C135.642 102.853 136.482 101.953 136.482 100.452C136.482 99.072 136.062 98.5918 136.062 97.5115C136.062 95.1707 138.343 93.9102 141.824 93.9102C148.006 93.9102 147.586 99.8523 147.586 105.974V106.335C145.726 106.575 142.845 106.875 140.744 107.175C135.582 108.015 129.64 109.336 129.64 115.458C129.64 121.1 134.802 122.6 139.543 122.6C144.045 122.6 146.746 119.359 147.586 115.878V116.778C147.586 120.98 149.567 122.6 152.748 122.6C156.109 122.6 157.49 120.319 158.09 118.459L157.85 118.339ZM140.084 122.24C136.662 122.24 135.102 119.239 135.102 115.398C135.102 112.877 135.762 108.435 140.984 107.475C143.145 107.115 145.846 106.875 147.586 106.635V113.297C147.586 117.979 144.585 122.24 140.084 122.24ZM174.74 93.6701C168.498 93.6701 166.218 101.713 165.797 107.415V94.2103H156.314V94.5104H160.876V121.7H156.314V122H170.659V121.7H166.037V108.855C166.037 103.153 168.738 94.8105 172.76 94.8105C176.541 94.8105 174.02 99.6122 177.381 99.6122C178.882 99.6122 179.482 98.4718 179.482 97.1513C179.482 95.1707 177.681 93.6701 174.74 93.6701ZM188.271 121.7V94.2103H178.547V94.5104H183.109V121.7H178.547V122H192.892V121.7H188.271ZM185.69 88.3283C187.31 88.3283 188.631 87.0078 188.631 85.3872C188.631 83.7667 187.31 82.5062 185.69 82.5062C184.129 82.5062 182.809 83.7667 182.809 85.3872C182.809 87.0078 184.129 88.3283 185.69 88.3283ZM220.836 118.339C220.296 120.019 219.156 121.7 217.535 121.7C215.555 121.7 215.735 119.419 215.735 116.718V105.074C215.735 97.6915 212.553 93.6701 204.811 93.6701C200.129 93.6701 194.907 96.131 194.907 100.272C194.907 101.713 195.808 102.853 197.188 102.853C198.629 102.853 199.469 101.953 199.469 100.452C199.469 99.072 199.049 98.5918 199.049 97.5115C199.049 95.1707 201.33 93.9102 204.811 93.9102C210.993 93.9102 210.573 99.8523 210.573 105.974V106.335C208.712 106.575 205.831 106.875 203.73 107.175C198.569 108.015 192.627 109.336 192.627 115.458C192.627 121.1 197.788 122.6 202.53 122.6C207.032 122.6 209.733 119.359 210.573 115.878V116.778C210.573 120.98 212.553 122.6 215.735 122.6C219.096 122.6 220.476 120.319 221.076 118.459L220.836 118.339ZM203.07 122.24C199.649 122.24 198.088 119.239 198.088 115.398C198.088 112.877 198.749 108.435 203.971 107.475C206.131 107.115 208.832 106.875 210.573 106.635V113.297C210.573 117.979 207.572 122.24 203.07 122.24Z" fill="white"/>
<path d="M131.58 124.589V124.889H136.801L125.278 146.617L112.913 124.889H118.075V124.589H101.389V124.889H106.191L119.756 148.658V166.304H114.294V166.604H130.919V166.304H125.458V146.797L137.102 124.889H141.783V124.589H131.58ZM159.443 162.943C158.903 164.623 157.762 166.304 156.142 166.304C154.161 166.304 154.341 164.023 154.341 161.322V149.678C154.341 142.295 151.16 138.274 143.417 138.274C138.736 138.274 133.514 140.735 133.514 144.876C133.514 146.317 134.414 147.457 135.795 147.457C137.235 147.457 138.076 146.557 138.076 145.056C138.076 143.676 137.655 143.196 137.655 142.115C137.655 139.775 139.936 138.514 143.417 138.514C149.6 138.514 149.179 144.456 149.179 150.578V150.938C147.319 151.178 144.438 151.479 142.337 151.779C137.175 152.619 131.233 153.939 131.233 160.062C131.233 165.704 136.395 167.204 141.137 167.204C145.638 167.204 148.339 163.963 149.179 160.482V161.382C149.179 165.583 151.16 167.204 154.341 167.204C157.702 167.204 159.083 164.923 159.683 163.063L159.443 162.943ZM141.677 166.844C138.256 166.844 136.695 163.843 136.695 160.002C136.695 157.481 137.355 153.039 142.577 152.079C144.738 151.719 147.439 151.479 149.179 151.239V157.901C149.179 162.582 146.178 166.844 141.677 166.844ZM167.105 166.304V124.589H157.321V124.889H161.943V166.304H157.321V166.604H171.666V166.304H167.105ZM179.66 166.304V124.589H169.876V124.889H174.498V166.304H169.876V166.604H184.221V166.304H179.66ZM197.288 138.274C189.666 138.274 183.904 144.276 183.904 152.739C183.904 161.202 190.026 167.204 198.429 167.204C204.071 167.204 207.192 164.023 208.452 161.022L208.092 160.842C206.892 163.843 203.531 166.904 198.429 166.904C191.286 166.904 189.426 158.561 189.426 152.739C189.426 152.199 189.426 151.599 189.426 150.998H209.233C209.473 142.596 203.351 138.274 197.288 138.274ZM189.486 150.698C189.786 145.176 191.586 138.514 197.288 138.514C202.03 138.514 203.651 144.756 203.711 150.698H189.486Z" fill="white"/>
</svg>
