<svg width="75" height="75" viewBox="0 0 75 75" fill="none" xmlns="http://www.w3.org/2000/svg">
<path d="M40.7143 6.25384C42.9947 6.24509 45.2751 6.26801 47.5549 6.3226L48.1612 6.34447C48.8612 6.36947 49.5518 6.40072 50.3862 6.43822C53.7112 6.59447 55.9799 7.11947 57.9705 7.89135C60.033 8.6851 61.7706 9.7601 63.5081 11.4976C65.0967 13.0589 66.3263 14.9474 67.1112 17.032C67.8831 19.0226 68.4081 21.2945 68.5643 24.6195C68.6018 25.4507 68.633 26.1445 68.658 26.8445L68.6768 27.4507C68.7323 29.7294 68.7563 32.0088 68.7487 34.2882L68.7518 36.6195V40.7132C68.7595 42.9937 68.7355 45.2741 68.6799 47.5538L68.6612 48.1601C68.6362 48.8601 68.6049 49.5507 68.5674 50.3851C68.4112 53.7101 67.8799 55.9788 67.1112 57.9695C66.3288 60.0562 65.099 61.9463 63.5081 63.507C61.9454 65.0955 60.0559 66.325 57.9705 67.1101C55.9799 67.882 53.7112 68.407 50.3862 68.5632C49.5518 68.6007 48.8612 68.632 48.1612 68.657L47.5549 68.6757C45.2752 68.7313 42.9947 68.7552 40.7143 68.7476L38.383 68.7507H34.2924C32.012 68.7584 29.7316 68.7345 27.4518 68.6788L26.8456 68.6601C26.1037 68.6332 25.362 68.602 24.6206 68.5664C21.2956 68.4101 19.0268 67.8789 17.0331 67.1101C14.9477 66.3268 13.0588 65.097 11.4987 63.507C9.90819 61.9454 8.6775 60.0556 7.89243 57.9695C7.12055 55.9788 6.59555 53.7101 6.4393 50.3851C6.4045 49.6436 6.37325 48.9019 6.34555 48.1601L6.32993 47.5538C6.27231 45.2741 6.24627 42.9937 6.2518 40.7132V34.2882C6.24308 32.0088 6.266 29.7295 6.32055 27.4507L6.34243 26.8445C6.36743 26.1445 6.39868 25.4507 6.43618 24.6195C6.59243 21.2913 7.11743 19.0257 7.8893 17.032C8.67484 14.9464 9.90794 13.0584 11.5018 11.5007C13.0608 9.90932 14.9486 8.67751 17.0331 7.89135C19.0268 7.11947 21.2924 6.59447 24.6206 6.43822L26.8456 6.34447L27.4518 6.32885C29.7305 6.27126 32.0099 6.24522 34.2893 6.25072L40.7143 6.25384ZM37.5018 21.8788C35.4315 21.8496 33.376 22.232 31.4549 23.0041C29.5337 23.7761 27.7851 24.9222 26.3107 26.3759C24.8363 27.8296 23.6656 29.5618 22.8664 31.4719C22.0673 33.3819 21.6558 35.4318 21.6558 37.5023C21.6558 39.5728 22.0673 41.6226 22.8664 43.5327C23.6656 45.4428 24.8363 47.175 26.3107 48.6287C27.7851 50.0824 29.5337 51.2285 31.4549 52.0005C33.376 52.7725 35.4315 53.155 37.5018 53.1257C41.6458 53.1257 45.6201 51.4795 48.5503 48.5493C51.4806 45.619 53.1268 41.6447 53.1268 37.5007C53.1268 33.3567 51.4806 29.3824 48.5503 26.4522C45.6201 23.5219 41.6458 21.8788 37.5018 21.8788ZM37.5018 28.1288C38.7471 28.1059 39.9846 28.3313 41.1418 28.792C42.299 29.2527 43.3529 29.9393 44.2417 30.8118C45.1306 31.6843 45.8367 32.7252 46.3188 33.8737C46.8009 35.0221 47.0493 36.2551 47.0495 37.5007C47.0497 38.7462 46.8017 39.9793 46.32 41.128C45.8383 42.2766 45.1326 43.3177 44.244 44.1905C43.3554 45.0633 42.3018 45.7503 41.1447 46.2114C39.9876 46.6724 38.7503 46.8983 37.5049 46.8757C35.0185 46.8757 32.634 45.888 30.8758 44.1299C29.1176 42.3717 28.1299 39.9871 28.1299 37.5007C28.1299 35.0143 29.1176 32.6297 30.8758 30.8716C32.634 29.1134 35.0185 28.1257 37.5049 28.1257L37.5018 28.1288ZM53.908 17.1913C52.8999 17.2317 51.9465 17.6606 51.2474 18.3881C50.5484 19.1157 50.158 20.0855 50.158 21.0945C50.158 22.1034 50.5484 23.0732 51.2474 23.8008C51.9465 24.5284 52.8999 24.9572 53.908 24.9976C54.9441 24.9976 55.9376 24.586 56.6702 23.8535C57.4028 23.1209 57.8143 22.1273 57.8143 21.0913C57.8143 20.0553 57.4028 19.0618 56.6702 18.3292C55.9376 17.5966 54.9441 17.1851 53.908 17.1851V17.1913Z" fill="#003B7D"/>
</svg>
