<svg id="visual" viewBox="0 0 960 540" width="960" height="540" xmlns="http://www.w3.org/2000/svg" xmlns:xlink="http://www.w3.org/1999/xlink" version="1.1"><rect x="0" y="0" width="960" height="540" fill="#001220"></rect><path d="M0 238L20 229.7C40 221.3 80 204.7 120 212.3C160 220 200 252 240 263.3C280 274.7 320 265.3 360 254.8C400 244.3 440 232.7 480 229.2C520 225.7 560 230.3 600 243.7C640 257 680 279 720 285.3C760 291.7 800 282.3 840 279.3C880 276.3 920 279.7 940 281.3L960 283L960 541L940 541C920 541 880 541 840 541C800 541 760 541 720 541C680 541 640 541 600 541C560 541 520 541 480 541C440 541 400 541 360 541C320 541 280 541 240 541C200 541 160 541 120 541C80 541 40 541 20 541L0 541Z" fill="#297eff"></path><path d="M0 330L20 326.7C40 323.3 80 316.7 120 306.7C160 296.7 200 283.3 240 276C280 268.7 320 267.3 360 278.7C400 290 440 314 480 325.3C520 336.7 560 335.3 600 336C640 336.7 680 339.3 720 333.3C760 327.3 800 312.7 840 296.2C880 279.7 920 261.3 940 252.2L960 243L960 541L940 541C920 541 880 541 840 541C800 541 760 541 720 541C680 541 640 541 600 541C560 541 520 541 480 541C440 541 400 541 360 541C320 541 280 541 240 541C200 541 160 541 120 541C80 541 40 541 20 541L0 541Z" fill="#439aff"></path><path d="M0 348L20 343.7C40 339.3 80 330.7 120 329.7C160 328.7 200 335.3 240 343.5C280 351.7 320 361.3 360 362.5C400 363.7 440 356.3 480 351.7C520 347 560 345 600 347.3C640 349.7 680 356.3 720 367.8C760 379.3 800 395.7 840 391.7C880 387.7 920 363.3 940 351.2L960 339L960 541L940 541C920 541 880 541 840 541C800 541 760 541 720 541C680 541 640 541 600 541C560 541 520 541 480 541C440 541 400 541 360 541C320 541 280 541 240 541C200 541 160 541 120 541C80 541 40 541 20 541L0 541Z" fill="#6ab3ff"></path><path d="M0 409L20 416C40 423 80 437 120 443.7C160 450.3 200 449.7 240 447C280 444.3 320 439.7 360 429C400 418.3 440 401.7 480 403.8C520 406 560 427 600 435.2C640 443.3 680 438.7 720 432C760 425.3 800 416.7 840 416.3C880 416 920 424 940 428L960 432L960 541L940 541C920 541 880 541 840 541C800 541 760 541 720 541C680 541 640 541 600 541C560 541 520 541 480 541C440 541 400 541 360 541C320 541 280 541 240 541C200 541 160 541 120 541C80 541 40 541 20 541L0 541Z" fill="#94cbfe"></path><path d="M0 491L20 481.5C40 472 80 453 120 443.5C160 434 200 434 240 439.3C280 444.7 320 455.3 360 455.8C400 456.3 440 446.7 480 447C520 447.3 560 457.7 600 465C640 472.3 680 476.7 720 482.3C760 488 800 495 840 492C880 489 920 476 940 469.5L960 463L960 541L940 541C920 541 880 541 840 541C800 541 760 541 720 541C680 541 640 541 600 541C560 541 520 541 480 541C440 541 400 541 360 541C320 541 280 541 240 541C200 541 160 541 120 541C80 541 40 541 20 541L0 541Z" fill="#bfe1fd"></path></svg>