<svg width="62" height="62" viewBox="0 0 62 62" fill="none" xmlns="http://www.w3.org/2000/svg">
<path d="M0.15625 8.14331V53.8596C0.15625 58.1748 3.552 61.5706 7.86719 61.5706H53.5835C55.6956 61.5706 57.7136 60.5601 59.0002 59.2764C60.3779 57.8987 61.2944 56.1538 61.2944 53.8596V8.14331C61.2944 3.82812 57.8987 0.432373 53.5835 0.432373H7.86719C5.573 0.432373 3.82813 1.35181 2.45044 2.72656C1.16381 4.01319 0.15625 6.03125 0.15625 8.14331ZM8.41944 14.2004C8.41944 11.2629 10.8076 8.69262 13.7451 8.69262C16.7737 8.69262 19.2529 11.2629 19.2529 14.2004C19.2529 17.229 16.7737 19.6172 13.7451 19.6172C10.8076 19.6172 8.41944 17.229 8.41944 14.2004ZM23.198 51.9297V23.9324C23.198 23.2891 23.8413 22.7397 24.2996 22.7397H32.1016C33.2031 22.7397 33.2031 24.0264 33.2031 24.8518C35.4062 22.6487 38.2527 22.0964 41.1902 22.0964C48.3518 22.0964 52.9402 25.4922 52.9402 33.021V51.9326C52.9402 52.5759 52.3879 53.1252 51.8386 53.1252H43.7605C43.1172 53.1252 42.6589 52.4819 42.6589 51.9326V34.8569C42.6589 32.0105 41.8335 30.4507 38.6199 30.4507C34.5808 30.4507 33.5703 33.1121 33.5703 36.6929V51.9326C33.5703 52.5759 32.927 53.1252 32.2837 53.1252H24.2966C23.8384 53.1252 23.1951 52.4819 23.1951 51.9326L23.198 51.9297ZM8.60156 51.9297V23.9324C8.60156 23.2891 9.24487 22.7397 9.70312 22.7397H17.6902C18.4246 22.7397 18.8828 23.198 18.8828 23.9324V51.9297C18.8828 52.573 18.3306 53.1223 17.6902 53.1223H9.70312C9.15088 53.1223 8.60156 52.479 8.60156 51.9297Z" fill="#003B7D"/>
</svg>
