<svg width="120" height="120" viewBox="0 0 120 120" fill="none" xmlns="http://www.w3.org/2000/svg">
<path d="M22.1325 102.004L13.71 7.5H106.29L97.8562 101.989L59.9437 112.5L22.1325 102.004Z" fill="#1572B6"/>
<path d="M60 104.468L90.6375 95.9738L97.845 15.2288H60V104.468Z" fill="#33A9DC"/>
<path d="M60 49.4662H75.3375L76.395 37.5975H60V26.0062H89.0625L88.785 29.115L85.9387 61.0575H60V49.4662Z" fill="white"/>
<path d="M60.0712 79.5674L60.0187 79.5824L47.1112 76.0949L46.2862 66.8512H34.65L36.2737 85.0499L60.015 91.6424L60.0712 91.6274V79.5674Z" fill="#EBEBEB"/>
<path d="M74.3512 60.5663L72.9562 76.0875L60.03 79.575V91.635L83.79 85.05L83.9662 83.0925L85.98 60.5663H74.3512Z" fill="white"/>
<path d="M60.0412 26.0062V37.5975H32.0437L31.8112 34.9912L31.2825 29.115L31.005 26.0062H60.0412ZM60 49.4662V61.0575H47.2537L47.0212 58.4512L46.4962 52.575L46.2187 49.4662H60Z" fill="#EBEBEB"/>
</svg>
