<svg width="120" height="120" viewBox="0 0 120 120" fill="none" xmlns="http://www.w3.org/2000/svg">
<path d="M60 50.55C65.15 50.55 69.35 54.75 69.35 60C69.35 65 65.15 69.25 60 69.25C54.85 69.25 50.65 65 50.65 60C50.65 54.75 54.85 50.55 60 50.55ZM36.85 100C40 101.9 46.9 99 54.85 91.5C52.25 88.55 49.7 85.35 47.3 82C43.2708 81.6144 39.265 81.0135 35.3 80.2C32.75 90.9 33.7 98.25 36.85 100ZM40.4 71.3L38.95 68.75C38.4 70.2 37.85 71.65 37.5 73.05C38.85 73.35 40.35 73.6 41.9 73.85L40.4 71.3ZM73.1 67.5L77.15 60L73.1 52.5C71.6 49.85 70 47.5 68.55 45.15C65.85 45 63 45 60 45C57 45 54.15 45 51.45 45.15C50 47.5 48.4 49.85 46.9 52.5L42.85 60L46.9 67.5C48.4 70.15 50 72.5 51.45 74.85C54.15 75 57 75 60 75C63 75 65.85 75 68.55 74.85C70 72.5 71.6 70.15 73.1 67.5ZM60 33.9C59.05 35 58.05 36.15 57.05 37.5H62.95C61.95 36.15 60.95 35 60 33.9ZM60 86.1C60.95 85 61.95 83.85 62.95 82.5H57.05C58.05 83.85 59.05 85 60 86.1ZM83.1 20C80 18.1 73.1 21 65.15 28.5C67.75 31.45 70.3 34.65 72.7 38C76.8 38.4 80.85 39 84.7 39.8C87.25 29.1 86.3 21.75 83.1 20ZM79.6 48.7L81.05 51.25C81.6 49.8 82.15 48.35 82.5 46.95C81.15 46.65 79.65 46.4 78.1 46.15L79.6 48.7ZM86.85 13.45C94.2 17.65 95 28.7 91.9 41.6C104.6 45.35 113.75 51.55 113.75 60C113.75 68.45 104.6 74.65 91.9 78.4C95 91.3 94.2 102.35 86.85 106.55C79.55 110.75 69.6 105.95 60 96.8C50.4 105.95 40.45 110.75 33.1 106.55C25.8 102.35 25 91.3 28.1 78.4C15.4 74.65 6.25 68.45 6.25 60C6.25 51.55 15.4 45.35 28.1 41.6C25 28.7 25.8 17.65 33.1 13.45C40.45 9.24996 50.4 14.05 60 23.2C69.6 14.05 79.55 9.24996 86.85 13.45ZM85.4 60C87.1 63.75 88.6 67.5 89.85 71.3C100.35 68.15 106.25 63.65 106.25 60C106.25 56.35 100.35 51.85 89.85 48.7C88.6 52.5 87.1 56.25 85.4 60ZM34.6 60C32.9 56.25 31.4 52.5 30.15 48.7C19.65 51.85 13.75 56.35 13.75 60C13.75 63.65 19.65 68.15 30.15 71.3C31.4 67.5 32.9 63.75 34.6 60ZM79.6 71.3L78.1 73.85C79.65 73.6 81.15 73.35 82.5 73.05C82.15 71.65 81.6 70.2 81.05 68.75L79.6 71.3ZM65.15 91.5C73.1 99 80 101.9 83.1 100C86.3 98.25 87.25 90.9 84.7 80.2C80.85 81 76.8 81.6 72.7 82C70.3 85.35 67.75 88.55 65.15 91.5ZM40.4 48.7L41.9 46.15C40.35 46.4 38.85 46.65 37.5 46.95C37.85 48.35 38.4 49.8 38.95 51.25L40.4 48.7ZM54.85 28.5C46.9 21 40 18.1 36.85 20C33.7 21.75 32.75 29.1 35.3 39.8C39.265 38.9864 43.2708 38.3856 47.3 38C49.7 34.65 52.25 31.45 54.85 28.5Z" fill="#737373"/>
</svg>
