<svg width="120" height="120" viewBox="0 0 120 120" fill="none" xmlns="http://www.w3.org/2000/svg">
<g clip-path="url(#clip0_220_8)">
<path d="M9.04374 102.926C5.94311 102.926 3.8568 105.695 3.8568 109.257C3.8568 112.818 5.94311 115.587 9.04374 115.587C12.1444 115.587 14.2307 112.818 14.2307 109.257C14.2307 105.695 12.1444 102.926 9.04374 102.926ZM8.34815 99.0026C10.8404 99.0026 12.9267 100.453 13.9119 102.036V99.3984H17.7368V119.148H14.81C14.5798 119.147 14.3592 119.042 14.1963 118.857C14.0335 118.672 13.9417 118.421 13.941 118.159V116.51C12.9557 118.093 10.8985 119.543 8.37721 119.543C3.62525 119.543 0.00292969 114.927 0.00292969 109.29C0.00292969 103.651 3.59619 99.0026 8.34815 99.0026ZM22.0833 99.3984H25.9081V102.069C26.9515 100.09 28.922 99.0021 31.1822 99.0021C35.21 99.0021 37.818 102.234 37.818 107.245V119.148H34.8912C34.661 119.147 34.4404 119.042 34.2776 118.857C34.1147 118.672 34.023 118.421 34.0222 118.159V107.971C34.0222 104.838 32.631 102.959 30.3999 102.959C27.8791 102.959 25.9085 105.201 25.9085 109.421V119.148H22.9818C22.7515 119.147 22.5308 119.043 22.3678 118.857C22.2049 118.672 22.1131 118.421 22.1123 118.159V99.3984H22.0833ZM49.8727 102.926C46.7721 102.926 44.6858 105.695 44.6858 109.257C44.6858 112.818 46.7716 115.587 49.8727 115.587C52.9728 115.587 55.0596 112.818 55.0596 109.257C55.0596 105.695 52.9728 102.926 49.8727 102.926ZM49.1771 99.0026C51.6693 99.0026 53.7556 100.453 54.7409 102.036V89.5066H58.5657V119.148H55.639C55.4086 119.147 55.1879 119.043 55.025 118.857C54.8621 118.672 54.7702 118.421 54.7695 118.159V116.51C53.7842 118.093 51.7274 119.543 49.2057 119.543C44.4537 119.543 40.8319 114.927 40.8319 109.29C40.8319 103.651 44.4247 99.0026 49.1771 99.0026ZM62.9122 99.3984H66.737V102.926C67.4036 100.684 69.345 99.2005 71.3156 99.2005C71.8082 99.2005 72.3008 99.233 72.7935 99.3653V103.817C72.1269 103.586 71.5762 103.454 70.881 103.454C68.7076 103.454 66.7084 105.564 66.7084 109.487V119.115H63.7817C63.5514 119.114 63.3306 119.01 63.1677 118.824C63.0048 118.639 62.913 118.388 62.9122 118.126V99.3984ZM83.0801 115.488C86.1226 115.488 88.2961 112.751 88.2961 109.257C88.2961 105.729 86.1517 103.025 83.0801 103.025C79.9795 103.025 77.8351 105.761 77.8351 109.257C77.8646 112.785 80.0086 115.488 83.0801 115.488ZM83.0801 119.543C77.9513 119.543 73.9817 114.994 73.9817 109.29C73.9817 103.553 77.9513 99.0026 83.0801 99.0026C88.2094 99.0026 92.1791 103.552 92.1791 109.29C92.1791 114.994 88.238 119.543 83.0801 119.543ZM95.2797 99.3984H99.1045V119.148H96.1778C95.9475 119.147 95.7269 119.042 95.5641 118.857C95.4013 118.672 95.3095 118.421 95.3088 118.159V99.3984H95.2797ZM97.1921 95.0789C95.8014 95.0789 94.6132 93.76 94.6132 92.1445C94.6132 90.5621 95.8014 89.2762 97.1921 89.2762C98.6123 89.2762 99.7129 90.5946 99.7129 92.1445C99.7129 93.7605 98.6119 95.0789 97.1921 95.0789ZM111.304 102.926C108.203 102.926 106.117 105.695 106.117 109.257C106.117 112.818 108.203 115.587 111.304 115.587C114.405 115.587 116.491 112.818 116.491 109.257C116.462 105.695 114.405 102.926 111.304 102.926ZM110.608 99.0026C113.101 99.0026 115.187 100.453 116.172 102.036V89.5066H119.997V119.148H117.07C116.84 119.147 116.619 119.043 116.456 118.857C116.293 118.672 116.202 118.421 116.201 118.159V116.51C115.216 118.093 113.159 119.543 110.637 119.543C105.885 119.543 102.263 114.927 102.263 109.29C102.263 103.651 105.856 99.0026 110.608 99.0026Z" fill="white"/>
<path d="M89.3972 23.2346L99.3942 3.55088C99.974 2.43034 99.6262 0.979143 98.6409 0.319943C97.6557 -0.339257 96.3807 0.0559427 95.8014 1.17701L85.6881 21.0917C77.9513 17.0693 69.2583 14.8271 60.0145 14.8271C50.7417 14.8271 42.0778 17.0693 34.3409 21.0917L24.2277 1.17701C23.6483 0.0559427 22.3734 -0.339257 21.3881 0.319943C20.4029 0.979143 20.0551 2.43034 20.6344 3.55088L30.6319 23.2346C13.4193 33.8517 1.71238 53.601 0.00292969 76.912H119.968C118.259 53.601 106.523 33.8517 89.3976 23.2346H89.3972ZM32.3704 57.4586C29.6176 57.4586 27.3864 54.9199 27.3864 51.7877C27.3864 48.6554 29.6176 46.1167 32.3704 46.1167C35.1233 46.1167 37.3544 48.6554 37.3544 51.7877C37.3544 54.9199 35.1233 57.4586 32.3704 57.4586ZM87.6005 57.4586C84.8477 57.4586 82.6166 54.9199 82.6166 51.7877C82.6166 48.6554 84.8477 46.1167 87.6005 46.1167C90.3534 46.1167 92.585 48.6554 92.585 51.7877C92.585 54.9199 90.3538 57.4586 87.6005 57.4586Z" fill="#3DDC84"/>
</g>
<defs>
<clipPath id="clip0_220_8">
<rect width="120" height="120" fill="white"/>
</clipPath>
</defs>
</svg>
