<svg width="120" height="120" viewBox="0 0 120 120" fill="none" xmlns="http://www.w3.org/2000/svg">
<g clip-path="url(#clip0_88_117)">
<path d="M60 119.062C58.2054 119.062 56.3839 118.641 54.8036 117.844L38.2768 109.289C35.8125 108.07 37.0179 107.648 37.8214 107.414C41.1161 106.406 41.7857 106.195 45.2946 104.438C45.6696 104.25 46.1518 104.32 46.5268 104.531L59.2232 111.117C59.6786 111.352 60.3214 111.352 60.75 111.117L110.223 86.1328C110.679 85.8984 110.973 85.4297 110.973 84.9609V34.9922C110.973 34.5 110.679 34.0547 110.196 33.7969L60.75 8.83594C60.2946 8.60156 59.6786 8.60156 59.2232 8.83594L9.80357 33.8203C9.32143 34.0547 9.02679 34.5234 9.02679 35.0156V84.9609C9.02679 85.4297 9.32143 85.8984 9.80357 86.1094L23.3571 92.9531C30.7232 96.1641 35.2232 92.3906 35.2232 88.5703V39.2578C35.2232 38.5547 35.8661 38.0156 36.6696 38.0156H42.9375C43.7143 38.0156 44.3839 38.5547 44.3839 39.2578V88.5938C44.3839 97.1719 39.0268 102.094 29.7321 102.094C26.8661 102.094 24.6161 102.094 18.3482 99.375L5.38393 92.8359C2.16964 91.2188 0.1875 88.1953 0.1875 84.9375V34.9922C0.1875 31.7578 2.16964 28.7109 5.38393 27.0937L54.8036 2.10938C57.9375 0.5625 62.0893 0.5625 65.1964 2.10938L114.67 27.1172C117.884 28.7344 119.866 31.7578 119.866 35.0156V84.9609C119.866 88.1953 117.884 91.2188 114.67 92.8594L65.1964 117.844C63.6161 118.641 61.8214 119.062 60 119.062ZM99.9375 69.8203C99.9375 60.4688 92.7054 57.9844 77.5179 56.2266C62.1428 54.4453 60.5893 53.5312 60.5893 50.3906C60.5893 47.7891 61.9018 44.3203 73.2857 44.3203C83.4375 44.3203 87.1875 46.2422 88.7411 52.2422C88.875 52.8047 89.4643 53.2266 90.1339 53.2266H96.5625C96.9643 53.2266 97.3393 53.0859 97.6071 52.8281C97.875 52.5703 98.0089 52.2188 97.9821 51.8672C96.9911 41.5312 89.1429 36.7266 73.2857 36.7266C59.1696 36.7266 50.7589 41.9297 50.7589 50.6719C50.7589 60.1406 59.1428 62.7656 72.6696 63.9375C88.875 65.3203 90.1339 67.4062 90.1339 70.1953C90.1339 75.0234 85.6875 77.0859 75.2679 77.0859C62.1696 77.0859 59.3036 74.2031 58.3393 68.5078C58.2321 67.8984 57.6429 67.4531 56.9196 67.4531H50.5179C49.7143 67.4531 49.0982 68.0156 49.0982 68.6953C49.0982 75.9844 53.625 84.6797 75.2946 84.6797C90.9375 84.6562 99.9375 79.2422 99.9375 69.8203Z" fill="#737373"/>
</g>
<defs>
<clipPath id="clip0_88_117">
<rect width="120" height="120" fill="white"/>
</clipPath>
</defs>
</svg>
