<svg width="120" height="120" viewBox="0 0 120 120" fill="none" xmlns="http://www.w3.org/2000/svg">
<path d="M119.941 27.1473C119.985 27.3071 120.008 27.4719 120.008 27.6376V53.3952C120.008 54.0681 119.638 54.6897 119.037 55.0244L96.7817 67.4719V92.1421C96.7818 92.4722 96.6926 92.7965 96.5229 93.0825C96.3533 93.3686 96.1092 93.6062 95.8152 93.7717L49.3583 119.75C49.2519 119.808 49.1361 119.846 49.0199 119.886C48.9763 119.9 48.9355 119.926 48.8896 119.938C48.5648 120.021 48.2234 120.021 47.8986 119.938C47.8452 119.924 47.7969 119.895 47.7463 119.877C47.6399 119.839 47.5288 119.806 47.4275 119.75L0.98002 93.7713C0.684867 93.6067 0.439617 93.3694 0.26901 93.0834C0.0984041 92.7974 0.00847673 92.4727 0.00830078 92.1421L0.00830078 14.8695C0.00830078 14.7002 0.0326758 14.5358 0.0758008 14.3764C0.090332 14.3222 0.124082 14.273 0.14377 14.2189C0.179863 14.1205 0.214082 14.0194 0.267051 13.9279C0.303145 13.8669 0.356113 13.8177 0.399707 13.7612C0.455488 13.6861 0.506113 13.6087 0.57127 13.5427C0.627051 13.489 0.699707 13.4489 0.76252 13.402C0.832832 13.3455 0.895176 13.2845 0.974863 13.2399H0.977207L24.2019 0.250938C24.496 0.0865298 24.8294 0 25.1687 0C25.508 0 25.8414 0.0865298 26.1355 0.250938L49.3602 13.2399H49.3649C49.4422 13.2872 49.5078 13.3455 49.5777 13.3997C49.6405 13.4466 49.7108 13.489 49.7661 13.5409C49.8341 13.6087 49.8824 13.6866 49.94 13.7612C49.9813 13.8177 50.0371 13.8669 50.0708 13.9279C50.1261 14.0217 50.1575 14.1205 50.1964 14.2193C50.2156 14.273 50.2494 14.3222 50.2639 14.3787C50.3085 14.5385 50.3314 14.7038 50.3319 14.8695V63.1325L69.6847 52.3078V27.6354C69.6847 27.4715 69.7091 27.3043 69.7527 27.1473C69.7695 27.0908 69.801 27.0416 69.8202 26.9879C69.8591 26.8891 69.8928 26.7875 69.9458 26.6965C69.9819 26.6355 70.0349 26.5863 70.0766 26.5298C70.1342 26.4547 70.1825 26.3773 70.25 26.3113C70.3063 26.2575 70.3761 26.2175 70.4389 26.1706C70.5116 26.1141 70.5744 26.0531 70.6517 26.0085H70.6541L93.8811 13.0195C94.1751 12.8549 94.5085 12.7682 94.8479 12.7682C95.1873 12.7682 95.5207 12.8549 95.8147 13.0195L119.039 26.0085C119.121 26.0554 119.184 26.1141 119.257 26.1678C119.317 26.2152 119.387 26.2575 119.443 26.309C119.51 26.3773 119.559 26.4547 119.616 26.5298C119.66 26.5863 119.713 26.6355 119.748 26.6965C119.803 26.7875 119.834 26.8891 119.873 26.9879C119.895 27.0416 119.926 27.0908 119.941 27.1473ZM116.137 52.3083V30.8892L108.009 35.4339L96.7813 41.7139V63.133L116.139 52.3083H116.137ZM92.9122 91.0552V69.6211L81.8675 75.7486L50.3295 93.2335V114.868L92.9122 91.0543V91.0552ZM3.87971 18.1206V91.0552L46.4577 114.867V93.2358L24.2146 81.0073L24.2075 81.0027L24.1981 80.9982C24.1231 80.9558 24.0599 80.8948 23.99 80.8433C23.9291 80.796 23.8592 80.7587 23.8063 80.7067L23.8016 80.6999C23.7388 80.6412 23.6952 80.5683 23.6422 80.5028C23.5935 80.439 23.5358 80.3853 23.4969 80.3197L23.4946 80.3124C23.451 80.2423 23.4242 80.1576 23.3928 80.0779C23.3614 80.0073 23.3206 79.9413 23.301 79.8666V79.8644C23.2771 79.7751 23.2724 79.6809 23.2625 79.5894C23.2531 79.5192 23.2335 79.4487 23.2335 79.3781V28.9458L12.0074 22.6631L3.87971 18.1234V18.1206ZM25.1713 4.04936L5.82033 14.8695L25.1666 25.6893L44.5147 14.8668L25.1666 4.04936H25.1713ZM35.2344 71.575L46.46 65.2977V18.1206L38.3333 22.6658L27.1044 28.9454V76.122L35.2344 71.575ZM94.8477 16.8179L75.4996 27.6376L94.8477 38.4578L114.193 27.6354L94.8477 16.8179ZM92.9117 41.7139L81.6838 35.4339L73.5566 30.8892V52.3083L84.7822 58.586L92.9122 63.133V41.7139H92.9117ZM48.3913 89.9824L76.7708 74.2441L90.9571 66.3796L71.623 55.5667L49.3625 68.0156L29.0741 79.3617L48.3913 89.9824Z" fill="#FF2D20"/>
</svg>
