<svg width="1440" height="868" viewBox="0 0 1440 868" fill="none" xmlns="http://www.w3.org/2000/svg">
<g clip-path="url(#clip0_88_6)">
<path d="M1533.36 683.148L1630.76 739.407V851.926L1533.36 908.185L1435.95 851.926V739.407L1533.36 683.148Z" stroke="#0066FF" stroke-opacity="0.04" stroke-width="2"/>
<path d="M411.467 421.141L487.974 465.344V553.752L411.467 597.956L334.96 553.752V465.344L411.467 421.141Z" stroke="#0066FF" stroke-opacity="0.04" stroke-width="2"/>
<path d="M1289.05 342.378L1380.98 395.422V501.511L1289.05 554.556L1197.11 501.511V395.422L1289.05 342.378Z" stroke="#0066FF" stroke-opacity="0.04" stroke-width="2"/>
<path d="M109.296 538.481L191.428 585.9V680.737L109.296 728.156L27.1632 680.737V585.9L109.296 538.481Z" stroke="#0066FF" stroke-opacity="0.04" stroke-width="2"/>
<path d="M445.22 -16.0741L524.62 29.737V121.359L445.22 167.17L365.82 121.359V29.737L445.22 -16.0741Z" stroke="#0066FF" stroke-opacity="0.04" stroke-width="2"/>
<path d="M697.565 397.03L747.712 425.963V483.83L697.565 512.763L647.417 483.83V425.963L697.565 397.03Z" stroke="#0066FF" stroke-opacity="0.04" stroke-width="2"/>
<path d="M949.909 572.237L1022.24 614.03V697.615L949.909 739.407L877.581 697.615V614.03L949.909 572.237Z" stroke="#0066FF" stroke-opacity="0.04" stroke-width="2"/>
</g>
<defs>
<clipPath id="clip0_88_6">
<rect width="1543" height="868" fill="white"/>
</clipPath>
</defs>
</svg>
