<svg id="visual" viewBox="0 0 960 540" width="960" height="540" xmlns="http://www.w3.org/2000/svg" xmlns:xlink="http://www.w3.org/1999/xlink" version="1.1"><g><g transform="translate(954 495)"><path d="M0 -70L60.6 -35L60.6 35L0 70L-60.6 35L-60.6 -35Z" fill="none" stroke="#0066FF" stroke-width="2"></path></g><g transform="translate(256 317)"><path d="M0 -55L47.6 -27.5L47.6 27.5L0 55L-47.6 27.5L-47.6 -27.5Z" fill="none" stroke="#0066FF" stroke-width="2"></path></g><g transform="translate(802 279)"><path d="M0 -66L57.2 -33L57.2 33L0 66L-57.2 33L-57.2 -33Z" fill="none" stroke="#0066FF" stroke-width="2"></path></g><g transform="translate(68 394)"><path d="M0 -59L51.1 -29.5L51.1 29.5L0 59L-51.1 29.5L-51.1 -29.5Z" stroke="#0066FF" fill="none" stroke-width="2"></path></g><g transform="translate(277 47)"><path d="M0 -57L49.4 -28.5L49.4 28.5L0 57L-49.4 28.5L-49.4 -28.5Z" stroke="#0066FF" fill="none" stroke-width="2"></path></g><g transform="translate(434 283)"><path d="M0 -36L31.2 -18L31.2 18L0 36L-31.2 18L-31.2 -18Z" stroke="#0066FF" fill="none" stroke-width="2"></path></g><g transform="translate(591 408)"><path d="M0 -52L45 -26L45 26L0 52L-45 26L-45 -26Z" stroke="#0066FF" fill="none" stroke-width="2"></path></g></g></svg>