<svg id="visual" viewBox="0 0 1440 3000" width="1440" height="3000" xmlns="http://www.w3.org/2000/svg" xmlns:xlink="http://www.w3.org/1999/xlink" version="1.1"><g><g transform="translate(1182 434)"><path d="M0 -292.2L253 -146.1L253 146.1L0 292.2L-253 146.1L-253 -146.1Z" fill="none" stroke="#297EA6" stroke-width="2"></path></g><g transform="translate(600 583)"><path d="M0 -194L168 -97L168 97L0 194L-168 97L-168 -97Z" stroke="#297EA6" fill="none" stroke-width="2"></path></g><g transform="translate(957 1748)"><path d="M0 -167L144.6 -83.5L144.6 83.5L0 167L-144.6 83.5L-144.6 -83.5Z" stroke="#297EA6" fill="none" stroke-width="2"></path></g><g transform="translate(739 2634)"><path d="M0 -151L130.8 -75.5L130.8 75.5L0 151L-130.8 75.5L-130.8 -75.5Z" stroke="#297EA6" fill="none" stroke-width="2"></path></g><g transform="translate(311 1302)"><path d="M0 -112L97 -56L97 56L0 112L-97 56L-97 -56Z" stroke="#297EA6" fill="none" stroke-width="2"></path></g><g transform="translate(215 2978)"><path d="M0 -226L195.7 -113L195.7 113L0 226L-195.7 113L-195.7 -113Z" stroke="#297EA6" fill="none" stroke-width="2"></path></g><g transform="translate(1425 1128)"><path d="M0 -194L168 -97L168 97L0 194L-168 97L-168 -97Z" stroke="#297EA6" fill="none" stroke-width="2"></path></g><g transform="translate(328 2147)"><path d="M0 -177L153.3 -88.5L153.3 88.5L0 177L-153.3 88.5L-153.3 -88.5Z" stroke="#297EA6" fill="none" stroke-width="2"></path></g><g transform="translate(4 801)"><path d="M0 -159L137.7 -79.5L137.7 79.5L0 159L-137.7 79.5L-137.7 -79.5Z" stroke="#297EA6" fill="none" stroke-width="2"></path></g><g transform="translate(1406 2563)"><path d="M0 -274L237.3 -137L237.3 137L0 274L-237.3 137L-237.3 -137Z" stroke="#297EA6" fill="none" stroke-width="2"></path></g><g transform="translate(163 167)"><path d="M0 -139L120.4 -69.5L120.4 69.5L0 139L-120.4 69.5L-120.4 -69.5Z" stroke="#297EA6" fill="none" stroke-width="2"></path></g></g></svg>