<svg xmlns="http://www.w3.org/2000/svg" version="1.1" xmlns:xlink="http://www.w3.org/1999/xlink" xmlns:svgjs="http://svgjs.dev/svgjs" viewBox="0 0 800 800"><defs><filter id="uuunion-blur" x="-100%" y="-100%" width="400%" height="400%" color-interpolation-filters="sRGB">
        <feGaussianBlur in="SourceGraphic" stdDeviation="5 5" result="blur"></feGaussianBlur>
        <feDropShadow stdDeviation="35.69230769230769" in="blur" dx="29" dy="29" flood-color="hsl(205, 100%, 50%)" flood-opacity="0.26" x="0%" y="0%" width="100%" height="100%"></feDropShadow>
      </filter><filter id="uuunion-blur2" x="-100%" y="-100%" width="400%" height="400%" color-interpolation-filters="sRGB">
        <feGaussianBlur in="SourceGraphic" stdDeviation="5 5" result="blur"></feGaussianBlur>
        <feDropShadow stdDeviation="35.69230769230769" in="blur" dx="-29" dy="-29" flood-color="hsl(205, 100%, 50%)" flood-opacity="0.26" x="0%" y="0%" width="100%" height="100%"></feDropShadow>
      </filter><linearGradient gradientTransform="rotate(331, 0.5, 0.5)" x1="50%" y1="0%" x2="50%" y2="100%" id="uuunion-grad"><stop stop-color="hsl(0, 0%, 100%)" offset="10%"></stop><stop stop-color="hsl(205, 100%, 50%)" offset="90%"></stop></linearGradient><linearGradient gradientTransform="rotate(135, 0.5, 0.5)" x1="50%" y1="0%" x2="50%" y2="100%" id="uuunion-grad2"><stop stop-color="hsl(0, 0%, 100%)" offset="25%"></stop><stop stop-color="hsl(205, 100%, 50%)" offset="100%"></stop></linearGradient><linearGradient gradientTransform="rotate(333, 0.5, 0.5)" x1="50%" y1="0%" x2="50%" y2="100%" id="uuunion-grad3"><stop stop-color="hsl(0, 0%, 100%)" offset="0%"></stop><stop stop-color="hsl(205, 100%, 50%)" offset="75%"></stop></linearGradient></defs><path d="M-79.33 -79.7Q-64.61 -77.13 -49.89 -74.79 -35.17 -72.88 -20.45 -71.56 -5.73 -70.94 8.98 -71.06 23.7 -71.93 38.42 -73.46 53.14 -75.53 67.86 -77.97 82.58 -80.58 97.3 -83.13 112.02 -85.43 126.74 -87.29 141.46 -88.53 156.18 -89.08 170.9 -88.87 185.62 -87.93 200.34 -86.33 215.06 -84.21 229.78 -81.74 244.5 -79.13 259.21 -76.59 273.93 -74.33 288.65 -72.54 303.37 -71.36 318.09 -70.9 332.81 -71.19 347.53 -72.21 362.25 -73.87 376.97 -76.04 391.69 -78.53 406.41 -81.15 421.13 -83.67 435.85 -85.88 450.57 -87.61 465.29 -88.71 480.01 -89.09 494.73 -88.72 509.45 -87.63 524.17 -85.91 538.89 -83.69 553.61 -81.18 568.33 -78.56 583.05 -76.06 597.77 -73.89 612.49 -72.22 627.21 -71.2 641.93 -70.9 656.65 -71.35 671.37 -72.52 686.09 -74.3 700.81 -76.56 715.53 -79.1 730.25 -81.71 744.97 -84.18 759.69 -86.31 774.41 -87.91 789.13 -88.86 803.85 -89.08 818.57 -88.54 833.29 -87.3 848.01 -85.46 862.73 -83.16 859.55 -68.22 859.69 -53.28 863.13 -38.34 869.29 -23.4 877.19 -8.46 885.55 6.47 893 21.41 898.35 36.36 900.72 51.3 899.73 66.24 895.54 81.18 888.83 96.12 880.69 111.06 872.44 126 865.41 140.94 860.74 155.89 859.2 170.83 861.03 185.77 865.93 200.71 873.11 215.65 881.41 230.59 889.48 245.53 896.01 260.47 899.95 275.42 900.65 290.36 898 305.3 892.43 320.24 884.85 335.18 876.48 350.12 868.68 365.06 862.71 380 859.55 394.95 859.7 409.89 863.14 424.83 869.31 439.77 877.22 454.71 885.57 469.65 893.02 484.59 898.36 499.53 900.72 514.48 899.72 529.42 895.53 544.36 888.81 559.3 880.67 574.24 872.41 589.18 865.39 604.12 860.73 619.06 859.2 634.01 861.04 648.95 865.95 663.89 873.14 678.83 881.44 693.77 889.5 708.71 896.03 723.65 899.95 738.59 900.64 753.54 897.99 768.48 892.41 783.42 884.83 798.36 876.46 813.3 868.66 828.24 862.7 843.18 859.54 858.12 859.7 873.07 845.03 868.04 830.36 864.01 815.69 861.3 801.02 860.13 786.35 860.61 771.68 862.68 757.01 866.19 742.34 870.84 727.67 876.24 713 881.96 698.33 887.51 683.66 892.44 668.98 896.34 654.31 898.9 639.64 899.89 624.97 899.23 610.3 896.99 595.63 893.34 580.96 888.59 566.29 883.13 551.62 877.41 536.95 871.91 522.28 867.07 507.61 863.3 492.94 860.91 478.26 860.1 463.59 860.93 448.92 863.33 434.25 867.12 419.58 871.97 404.91 877.48 390.24 883.2 375.57 888.65 360.9 893.39 346.23 897.03 331.56 899.25 316.89 899.88 302.22 898.87 287.54 896.3 272.87 892.39 258.2 887.45 243.53 881.89 228.86 876.18 214.19 870.78 199.52 866.14 184.85 862.65 170.18 860.59 155.51 860.14 140.84 861.32 126.17 864.05 111.5 868.1 96.82 873.13 82.15 878.73 67.48 884.43 52.81 889.76 38.14 894.29 23.47 897.64 8.8 899.53 -5.86 899.8 -20.53 898.44 -35.2 895.55 -49.87 891.38 -64.54 886.27 -79.21 880.64 -79.21 865.63 -79.33 850.63 -79.56 835.62 -79.86 820.62 -80.18 805.61 -80.47 790.61 -80.69 775.6 -80.79 760.59 -80.76 745.59 -80.61 730.58 -80.36 715.58 -80.05 700.57 -79.73 685.57 -79.45 670.56 -79.27 655.56 -79.2 640.55 -79.25 625.55 -79.43 610.54 -79.7 595.53 -80.02 580.53 -80.33 565.52 -80.59 550.52 -80.75 535.51 -80.79 520.51 -80.7 505.5 -80.5 490.5 -80.21 475.49 -79.89 460.49 -79.58 445.48 -79.35 430.47 -79.21 415.47 -79.21 400.46 -79.33 385.46 -79.56 370.45 -79.86 355.45 -80.18 340.44 -80.47 325.44 -80.69 310.43 -80.79 295.43 -80.76 280.42 -80.61 265.41 -80.36 250.41 -80.05 235.4 -79.73 220.4 -79.45 205.39 -79.27 190.39 -79.2 175.38 -79.25 160.38 -79.43 145.37 -79.7 130.37 -80.02 115.36 -80.33 100.35 -80.59 85.35 -80.75 70.34 -80.79 55.34 -80.7 40.33 -80.5 25.33 -80.21 10.32 -79.89 -4.67 -79.58 -19.68 -79.35 -34.68 -79.21 -49.69 -79.21 -64.7 -79.33 -79.7" fill="url(#uuunion-grad)"></path><path d="M-79.33 -79.7Q-79.21 -64.7 -79.21 -49.69 -79.35 -34.68 -79.58 -19.68 -79.89 -4.67 -80.21 10.32 -80.5 25.33 -80.7 40.33 -80.79 55.34 -80.75 70.34 -80.59 85.35 -80.33 100.35 -80.02 115.36 -79.7 130.37 -79.43 145.37 -79.25 160.38 -79.2 175.38 -79.27 190.39 -79.45 205.39 -79.73 220.4 -80.05 235.4 -80.36 250.41 -80.61 265.41 -80.76 280.42 -80.79 295.43 -80.69 310.43 -80.47 325.44 -80.18 340.44 -79.86 355.45 -79.56 370.45 -79.33 385.46 -79.21 400.46 -69.43 403.22 -59.65 405.87 -49.87 408.29 -40.09 410.41 -30.31 412.15 -20.54 413.44 -2.21 414.42 0.96 414.48 13.21 407.62 25.53 399.97 37.94 391.63 50.45 382.71 63.07 373.38 75.8 363.81 88.66 354.21 101.62 344.75 114.68 335.63 127.82 326.99 141.02 318.98 154.25 311.69 167.48 305.16 180.67 299.41 193.81 294.4 206.84 290.06 219.75 286.26 232.5 282.86 245.06 279.69 257.43 276.58 269.59 273.35 281.53 269.82 293.26 265.85 304.78 261.3 316.12 256.09 327.3 250.17 338.36 243.52 349.33 236.17 360.25 228.2 371.19 219.72 382.18 210.84 393.28 201.74 404.54 192.56 416 183.49 427.72 174.68 439.72 166.27 452.04 158.39 464.69 151.11 477.69 144.49 491.04 138.55 504.71 133.26 518.7 128.55 532.97 124.33 547.47 120.48 562.16 116.86 576.96 113.31 591.82 109.69 606.66 105.83 621.41 101.61 635.99 96.92 650.35 91.67 664.4 85.82 678.1 79.34 691.39 72.27 704.23 64.64 716.6 56.56 728.48 48.13 739.88 39.48 750.81 30.74 761.3 22.07 771.4 13.6 781.17 5.45 790.67 -2.26 800 -9.48 791.34 -26.79 784.59 -44.1 781.21 -61.42 781.97 -78.73 786.68 -96.04 794.31 -113.36 799.73 -138.79 781.16 -145.25 766.05 -143.18 750.95 -140.84 735.84 -138.44 720.73 -136.16 705.63 -134.2 690.52 -132.7 675.41 -131.81 660.3 -131.58 645.2 -132.04 630.09 -133.15 614.98 -134.81 599.88 -136.9 584.77 -139.24 569.66 -141.65 554.55 -143.92 539.45 -145.86 524.34 -147.33 509.23 -148.2 494.13 -148.4 479.02 -147.92 463.91 -146.79 448.8 -145.1 433.7 -143 418.59 -140.65 403.48 -138.25 388.38 -135.99 373.27 -134.06 358.16 -132.61 343.05 -131.76 327.95 -131.59 312.84 -132.11 297.73 -133.26 282.63 -134.97 267.52 -137.09 252.41 -139.44 237.3 -141.84 222.2 -144.09 207.09 -146 191.98 -147.43 176.88 -148.25 161.77 -148.39 146.66 -147.85 131.55 -146.67 116.45 -144.94 101.34 -142.81 86.23 -140.45 71.13 -138.05 56.02 -135.82 40.91 -133.92 25.8 -132.52 10.7 -131.72 -4.4 -131.61 -19.51 -132.18 -34.61 -133.38 -49.72 -135.13 -64.83 -137.27 -79.94 -139.64 -95.04 -142.03 -110.15 -144.26 -125.26 -146.14 -134.67 -134.02 -116.72 -115.5 -107.23 -106.75 -97.83 -97.83 -88.54 -88.8 -79.33 -79.7" fill="url(#uuunion-grad2)" filter="url(#uuunion-blur)"></path><path d="M781.32 386.25Q791.1 385.62 800.88 385.52 810.65 385.96 820.43 386.91 830.21 388.35 839.99 390.21 849.77 392.44 859.55 394.95 859.7 409.89 863.14 424.83 869.31 439.77 877.22 454.71 885.57 469.65 893.02 484.59 898.36 499.53 900.72 514.48 899.72 529.42 895.53 544.36 888.81 559.3 880.67 574.24 872.41 589.18 865.39 604.12 860.73 619.06 859.2 634.01 861.04 648.95 865.95 663.89 873.14 678.83 881.44 693.77 889.5 708.71 896.03 723.65 899.95 738.59 900.64 753.54 897.99 768.48 892.41 783.42 884.83 798.36 876.46 813.3 868.66 828.24 862.7 843.18 859.54 858.12 859.7 873.07 846.24 868.43 832.78 864.59 819.31 861.83 805.85 860.34 792.39 860.21 778.92 861.47 765.46 864.01 752 867.67 738.53 872.18 725.07 877.24 711.61 882.5 698.14 887.57 684.68 892.13 671.22 895.83 657.75 898.43 644.29 899.75 630.83 899.69 617.36 898.26 603.9 895.56 590.43 891.77 576.97 887.16 563.51 882.05 550.04 876.8 536.58 871.77 523.12 867.32 509.65 863.75 496.19 861.31 482.73 860.17 469.26 860.41 455.8 862.02 442.34 864.88 428.87 868.79 415.41 873.49 401.95 878.63 388.48 883.87 375.02 888.85 361.56 893.2 348.09 896.64 334.63 898.91 321.17 899.87 307.7 899.44 294.24 897.66 280.77 894.65 267.31 890.61 253.85 885.84 240.38 880.66 226.92 875.43 213.46 870.52 199.99 866.27 186.53 862.98 173.07 860.87 159.6 860.1 146.14 860.71 132.68 862.66 119.21 865.82 105.75 869.97 92.29 874.82 78.82 880.03 65.36 885.23 51.9 890.07 38.43 894.21 24.97 897.36 4.76 894.54 -1.92 879.67 -1.81 869.55 -1.63 859.44 -1.41 849.33 -1.16 839.22 -0.52 824.05 0.36 819 13.15 812.13 26.01 804.22 38.91 795.36 51.83 785.71 64.75 775.47 77.64 764.88 90.46 754.18 103.21 743.63 115.85 733.49 128.36 723.96 140.74 715.23 152.96 707.43 165.03 700.66 176.95 694.93 188.73 690.2 200.38 686.38 211.92 683.32 223.39 680.83 234.81 678.69 246.22 676.67 257.66 674.52 269.17 672 280.8 668.91 292.57 665.07 304.52 660.35 316.69 654.66 329.1 647.98 341.78 640.35 354.72 631.85 367.93 622.62 381.41 612.83 395.13 602.69 409.07 592.43 423.2 582.28 437.48 572.47 451.85 563.18 466.26 554.6 480.65 546.85 494.97 540.01 509.14 534.1 523.12 529.1 536.85 524.93 550.27 521.46 563.35 518.53 576.06 515.94 588.37 513.47 600.27 510.92 611.77 508.07 622.87 504.72 633.62 500.72 644.04 495.94 654.18 490.3 664.12 483.79 673.92 476.41 683.66 468.25 693.41 459.41 703.26 450.07 713.3 440.38 723.59 430.57 734.23 420.83 745.27 411.36 756.77 402.34 775.05 390.09 781.32 386.25" fill="url(#uuunion-grad3)" filter="url(#uuunion-blur2)"></path></svg>