<svg id="visual" viewBox="0 0 960 540" width="960" height="540" xmlns="http://www.w3.org/2000/svg" xmlns:xlink="http://www.w3.org/1999/xlink" version="1.1"><rect x="0" y="0" width="960" height="540" fill="#000a15"></rect><path d="M0 275L26.7 257.2C53.3 239.3 106.7 203.7 160 200C213.3 196.3 266.7 224.7 320 243C373.3 261.3 426.7 269.7 480 270C533.3 270.3 586.7 262.7 640 271.8C693.3 281 746.7 307 800 297.8C853.3 288.7 906.7 244.3 933.3 222.2L960 200L960 0L933.3 0C906.7 0 853.3 0 800 0C746.7 0 693.3 0 640 0C586.7 0 533.3 0 480 0C426.7 0 373.3 0 320 0C266.7 0 213.3 0 160 0C106.7 0 53.3 0 26.7 0L0 0Z" fill="#0051ca" stroke-linecap="round" stroke-linejoin="miter"></path></svg>